<svg xmlns="http://www.w3.org/2000/svg" version="1.1" xmlns:xlink="http://www.w3.org/1999/xlink" xmlns:svgjs="http://svgjs.dev/svgjs" width="2000" height="1500" viewBox="0 0 2000 1500"><rect width="2000" height="1500" fill="#000000"></rect><g transform="matrix(0.75,0,0,0.75,250,0)"><svg viewBox="0 0 280 280" data-background-color="#000000" preserveAspectRatio="xMidYMid meet" height="2000" width="2000" xmlns="http://www.w3.org/2000/svg" xmlns:xlink="http://www.w3.org/1999/xlink"><g id="tight-bounds" transform="matrix(1,0,0,1,0,0)"><svg viewBox="0 0 280 280" height="280" width="280"><g><svg viewBox="0 0 280 280" height="280" width="280"><g><svg viewBox="0 0 280 280" height="280" width="280"><g id="textblocktransform"><svg viewBox="0 0 280 280" height="280" width="280" id="textblock"><g><svg viewBox="0 0 280 280" height="280" width="280"><g transform="matrix(1,0,0,1,74.00336708925556,74.01570132348448)"><svg viewBox="0 0 131.99326582148888 131.96859735303104" height="131.96859735303104" width="131.99326582148888"><g id="icon-0"><svg xmlns="http://www.w3.org/2000/svg" xmlns:xlink="http://www.w3.org/1999/xlink" version="1.1" x="0" y="0" viewBox="7.956999999999994 7.349999999999994 85.611 85.595" enable-background="new 0 0 100 100" xml:space="preserve" height="131.96859735303104" width="131.99326582148888" class="icon-xg-0" data-fill-palette-color="accent" id="xg-0"><path d="M93.568 50.134c0 23.641-19.171 42.811-42.819 42.811-23.615 0-42.792-19.17-42.792-42.811 0-23.632 19.177-42.784 42.792-42.784C74.397 7.35 93.568 26.502 93.568 50.134L93.568 50.134zM88.671 50.134c0-20.926-16.986-37.903-37.922-37.903S12.854 29.208 12.854 50.134c0 20.936 16.959 37.915 37.895 37.915S88.671 71.07 88.671 50.134L88.671 50.134zM29.045 47.14h7.457c0.154-3.183-0.768-6.33-2.628-8.932-0.443-0.615-1.28-0.742-1.91-0.308-0.119 0.068-0.205 0.17-0.29 0.308C29.813 40.81 28.894 43.958 29.045 47.14zM37.611 66.473l-0.035-1.553-0.717-0.701c-0.171-0.178-0.237-0.469-0.117-0.707l0.715-1.236c0.034-0.086 0.068-0.18 0.068-0.281l-0.188-9.957c0-0.092-0.025-0.178-0.052-0.256l-0.954-1.775V48.42h-7.116v1.586l-0.954 1.775c-0.026 0.078-0.051 0.164-0.051 0.256l-0.213 9.957c0 0.102 0.024 0.195 0.093 0.281l0.682 1.236c0.121 0.238 0.087 0.529-0.084 0.707l-0.752 0.701-0.034 1.553c0 0.316 0.273 0.58 0.597 0.58h8.55C37.338 67.053 37.611 66.805 37.611 66.473zM41.041 47.14h7.439c0.178-3.183-0.752-6.33-2.629-8.932-0.418-0.615-1.254-0.742-1.877-0.308-0.119 0.068-0.213 0.17-0.307 0.308C41.791 40.81 40.87 43.958 41.041 47.14zM49.614 66.473L49.59 64.92l-0.718-0.701c-0.214-0.178-0.239-0.469-0.119-0.707l0.683-1.236c0.06-0.086 0.084-0.18 0.084-0.281l-0.205-9.957c0-0.092 0-0.178-0.059-0.256l-0.93-1.775V48.42h-7.133v1.586l-0.921 1.775c-0.067 0.078-0.067 0.164-0.067 0.256L40 61.994c0 0.102 0.034 0.195 0.085 0.281l0.69 1.236c0.12 0.238 0.095 0.529-0.119 0.707l-0.715 0.701-0.027 1.553c0 0.316 0.266 0.58 0.563 0.58 0.034 0 8.539 0 8.539 0C49.351 67.053 49.614 66.805 49.614 66.473zM53.019 47.14h7.465c0.146-3.183-0.776-6.33-2.626-8.932-0.454-0.615-1.291-0.742-1.887-0.308-0.119 0.068-0.238 0.17-0.324 0.308C53.794 40.81 52.865 43.958 53.019 47.14zM61.618 66.473l-0.034-1.553-0.741-0.701c-0.181-0.178-0.213-0.469-0.096-0.707l0.692-1.236c0.06-0.086 0.094-0.18 0.094-0.281l-0.213-9.957c0-0.092-0.026-0.178-0.062-0.256l-0.954-1.775V48.42h-7.107v1.586l-0.955 1.775c-0.026 0.078-0.059 0.164-0.059 0.256l-0.181 9.957c0 0.102 0.025 0.195 0.06 0.281l0.718 1.236c0.118 0.238 0.06 0.529-0.12 0.707l-0.716 0.701-0.034 1.553c0 0.316 0.239 0.58 0.571 0.58h8.539C61.345 67.053 61.618 66.805 61.618 66.473zM65.022 47.14h7.465c0.153-3.183-0.778-6.33-2.628-8.932-0.442-0.615-1.279-0.742-1.877-0.308-0.12 0.068-0.239 0.17-0.334 0.308C65.799 40.81 64.876 43.958 65.022 47.14zM73.596 66.473l-0.034-1.553-0.716-0.701c-0.18-0.178-0.239-0.469-0.086-0.707l0.684-1.236c0.059-0.086 0.059-0.18 0.059-0.281l-0.18-9.957c0-0.092-0.034-0.178-0.059-0.256l-0.957-1.775V48.42h-7.105v1.586l-0.957 1.775c-0.032 0.078-0.059 0.164-0.059 0.256l-0.213 9.957c0 0.102 0.034 0.195 0.094 0.281l0.69 1.236c0.146 0.238 0.085 0.529-0.094 0.707l-0.717 0.701-0.024 1.553c-0.034 0.316 0.238 0.58 0.563 0.58h8.539C73.356 67.053 73.596 66.805 73.596 66.473z" fill="#ffffff" data-fill-palette-color="accent"></path></svg></g></svg></g><g id="text-0"><path d="M31.256 106.853l-0.18 0.205c0.02 0.086 0.04 0.171 0.06 0.257 0.022 0.079 0.043 0.162 0.063 0.247v0c0.05 0.303 0.046 0.559-0.012 0.767-0.065 0.206-0.028 0.476 0.111 0.81v0c-0.146 0.049-0.226 0.095-0.242 0.14-0.016 0.044-0.044 0.124-0.084 0.238v0c-0.105 0.299-0.245 0.442-0.419 0.431v0c-0.008 0.104-0.001 0.267 0.021 0.49 0.026 0.231 0.046 0.398 0.058 0.503v0c-0.227-0.308-0.408-0.526-0.542-0.652-0.134-0.126-0.269-0.22-0.404-0.281-0.129-0.06-0.269-0.119-0.419-0.18-0.142-0.064-0.334-0.189-0.576-0.374v0c-0.071-0.082-0.151-0.15-0.24-0.202-0.08-0.057-0.169-0.127-0.268-0.212v0c-0.303-0.235-0.656-0.47-1.059-0.704-0.405-0.228-0.738-0.492-0.997-0.79v0c-0.388-0.136-0.72-0.35-0.997-0.64-0.283-0.292-0.589-0.56-0.917-0.804v0c-0.118-0.091-0.233-0.2-0.346-0.326-0.104-0.13-0.219-0.241-0.343-0.334v0c-0.198-0.169-0.394-0.321-0.59-0.454-0.196-0.133-0.383-0.271-0.562-0.412v0c-0.596-0.417-1.189-0.832-1.78-1.247-0.586-0.406-1.181-0.805-1.786-1.196v0c-0.105-0.066-0.223-0.139-0.351-0.22-0.12-0.085-0.229-0.17-0.328-0.255v0c-0.303-0.235-0.627-0.431-0.972-0.588-0.336-0.161-0.632-0.386-0.887-0.676v0c-0.172-0.039-0.319-0.098-0.442-0.177-0.126-0.087-0.261-0.181-0.404-0.281-0.143-0.1-0.274-0.196-0.392-0.288-0.124-0.094-0.217-0.166-0.277-0.216v0c-0.252-0.217-0.489-0.397-0.711-0.539-0.221-0.142-0.436-0.353-0.645-0.633v0c0 0-0.11-0.074-0.328-0.223-0.211-0.153-0.45-0.326-0.718-0.52-0.265-0.2-0.516-0.381-0.751-0.543-0.238-0.155-0.38-0.241-0.425-0.256v0c-0.166-0.116-0.324-0.217-0.471-0.305-0.148-0.088-0.306-0.186-0.474-0.296v0c-0.097-0.091-0.178-0.173-0.246-0.247-0.061-0.071-0.14-0.149-0.239-0.234v0c-0.23-0.159-0.513-0.338-0.851-0.535-0.34-0.191-0.595-0.381-0.764-0.568v0c-0.134-0.126-0.218-0.305-0.25-0.538-0.035-0.226-0.085-0.43-0.15-0.61v0c0.188-0.391 0.271-0.701 0.252-0.929-0.028-0.224-0.077-0.452-0.146-0.684v0c0.059-0.108 0.126-0.206 0.2-0.294 0.068-0.091 0.121-0.193 0.162-0.307v0c0.637-0.269 1.236-0.397 1.796-0.386 0.556 0.003 1.114 0.01 1.675 0.021v0c0.277 0.026 0.548 0.046 0.814 0.061 0.26 0.013 0.52 0.015 0.78 0.007v0c0.079-0.001 0.167-0.009 0.265-0.025 0.092-0.018 0.19-0.033 0.295-0.046v0c0.225-0.05 0.456-0.079 0.695-0.088 0.23-0.005 0.459-0.006 0.687-0.005v0c0.208-0.084 0.431-0.12 0.67-0.107 0.241 0.006 0.482 0.02 0.725 0.041 0.236 0.019 0.462 0.027 0.677 0.024 0.222-0.001 0.423-0.044 0.603-0.131v0c0.27 0.045 0.543 0.051 0.818 0.02 0.282-0.029 0.568-0.022 0.86 0.023v0c0.231-0.069 0.637-0.105 1.216-0.108 0.571 0.001 1.188 0.014 1.85 0.04 0.656 0.024 1.285 0.052 1.888 0.086 0.603 0.033 1.03 0.055 1.284 0.065v0c0.2 0.02 0.468 0.011 0.803-0.028 0.333-0.033 0.634-0.066 0.903-0.1v0c0.281-0.008 0.577-0.015 0.885-0.021 0.309-0.006 0.603 0.001 0.882 0.021v0c0.264 0.043 0.52 0.076 0.769 0.099 0.249 0.023 0.512 0.048 0.788 0.073v0c0.177 0.005 0.341-0.016 0.494-0.062 0.158-0.044 0.339-0.059 0.541-0.045v0c0.216-0.024 0.408-0.024 0.578 0 0.172 0.018 0.371 0.002 0.595-0.048v0c0.239 0.113 0.401 0.159 0.487 0.139 0.086-0.02 0.182-0.04 0.289-0.059v0c0.508 0.079 0.925 0.111 1.251 0.097 0.326-0.014 0.648 0.035 0.966 0.147v0c0.273 0.096 0.427 0.207 0.462 0.333 0.034 0.126 0.102 0.3 0.202 0.521v0c0.096 0.234 0.17 0.431 0.22 0.592 0.044 0.158 0.023 0.362-0.064 0.61v0c-0.122 0.264-0.138 0.444-0.05 0.539 0.082 0.093 0.14 0.16 0.175 0.201v0c-0.122 0.264-0.19 0.44-0.206 0.527-0.014 0.081-0.036 0.162-0.065 0.245-0.027 0.076-0.039 0.161-0.036 0.255 0.011 0.09 0.057 0.202 0.138 0.338v0c-0.24 0.094-0.459 0.189-0.657 0.284-0.206 0.099-0.42 0.17-0.642 0.213v0c-0.388-0.136-0.861-0.242-1.421-0.318-0.563-0.084-1.011-0.12-1.344-0.108v0c-0.678 0.019-1.333 0.024-1.966 0.016-0.641-0.004-1.292-0.022-1.952-0.054v0c-0.272-0.017-0.525-0.02-0.757-0.01-0.237 0.003-0.486 0.011-0.749 0.026v0c0.202 0.014 0.4 0.062 0.592 0.144 0.186 0.08 0.351 0.209 0.496 0.389v0c0.029 0.06 0.061 0.15 0.098 0.27 0.039 0.114 0.08 0.178 0.124 0.194v0c0.133 0.354 0.265 0.668 0.397 0.943v0c0.42 0.126 0.686 0.284 0.798 0.473 0.11 0.196 0.203 0.396 0.281 0.603v0c-0.111 0.397-0.217 0.627-0.318 0.691-0.097 0.073-0.186 0.184-0.268 0.335v0c-0.057 0.08-0.094 0.167-0.113 0.26-0.021 0.1-0.047 0.194-0.078 0.283v0c-0.065 0.184-0.17 0.34-0.314 0.468v0c-0.075 0.052-0.141 0.086-0.197 0.102-0.058 0.022-0.117 0.048-0.177 0.077v0c-0.247 0.113-0.476 0.268-0.688 0.465-0.206 0.199-0.396 0.396-0.573 0.592v0c-0.221 0.122-0.453 0.251-0.693 0.388-0.239 0.13-0.452 0.28-0.641 0.45v0c0.374 0.339 0.708 0.617 1.003 0.834 0.295 0.218 0.578 0.45 0.849 0.695v0c0.686 0.527 1.294 0.973 1.822 1.337 0.523 0.362 1.044 0.749 1.563 1.161v0c-0.008 0.104-0.003 0.202 0.015 0.294 0.015 0.098 0.003 0.205-0.037 0.319zM24.912 101.28l0.051-0.143c-0.253-0.296-0.373-0.524-0.36-0.683 0.02-0.157-0.02-0.318-0.12-0.482v0c-0.029-0.06-0.068-0.131-0.118-0.213-0.043-0.08-0.088-0.167-0.133-0.261v0c-0.02-0.086-0.036-0.181-0.05-0.285-0.017-0.113-0.047-0.213-0.087-0.299v0c-0.1-0.242-0.182-0.446-0.246-0.611-0.07-0.167-0.061-0.375 0.026-0.623v0c0.136-0.388 0.345-0.675 0.625-0.862 0.284-0.179 0.522-0.438 0.712-0.778v0c0.158-0.002 0.309-0.116 0.454-0.344 0.147-0.234 0.288-0.402 0.423-0.505v0c-0.653 0.028-1.29 0.003-1.913-0.073-0.627-0.085-1.256-0.135-1.887-0.149v0c-0.551-0.037-1.106-0.053-1.664-0.05-0.554 0.012-1.089 0.031-1.606 0.057v0c-0.514-0.002-1.007-0.022-1.479-0.059-0.479-0.04-0.953-0.042-1.422-0.008v0c0.342 0.327 0.779 0.688 1.312 1.083 0.526 0.392 1.003 0.713 1.429 0.963v0c0.203 0.072 0.358 0.14 0.463 0.206v0c0.143 0.1 0.271 0.195 0.382 0.284 0.111 0.089 0.226 0.179 0.344 0.271v0c0.785 0.612 1.592 1.199 2.423 1.763 0.826 0.555 1.64 1.155 2.441 1.801z" fill="#ffffff" data-fill-palette-color="primary"></path><path d="M67.459 46.866v0c0.235 0.278 0.481 0.421 0.739 0.428 0.257 0.007 0.522 0.067 0.795 0.18v0c0.192 0.282 0.399 0.452 0.622 0.511v0c0.048 0.149 0.108 0.315 0.179 0.498 0.071 0.183 0.097 0.367 0.078 0.553v0c-0.168 0.391-0.238 0.656-0.209 0.795 0.034 0.134-0.029 0.278-0.191 0.43v0c-0.005 0.171-0.012 0.355-0.022 0.55-0.02 0.195-0.032 0.378-0.037 0.55v0c-0.121 0.049-0.223 0.063-0.309 0.041-0.081-0.017-0.197-0.037-0.349-0.06v0c-0.227 0.113-0.474 0.17-0.741 0.172-0.267 0.002-0.531-0.032-0.791-0.101-0.265-0.065-0.535-0.144-0.808-0.237-0.269-0.098-0.514-0.191-0.736-0.278v0c-0.675-0.224-1.36-0.448-2.054-0.673-0.694-0.225-1.391-0.442-2.09-0.653v0c-0.355-0.091-0.709-0.196-1.064-0.316-0.354-0.11-0.721-0.223-1.098-0.338v0c-0.067-0.002-0.138-0.009-0.214-0.02-0.081-0.007-0.164-0.021-0.249-0.043v0c-0.284-0.056-0.563-0.164-0.835-0.324-0.267-0.165-0.566-0.226-0.896-0.183v0c-0.365 0.28-0.62 0.614-0.764 1.001-0.149 0.391-0.23 0.792-0.241 1.201v0c0.13 0.109 0.244 0.214 0.341 0.317 0.102 0.108 0.204 0.215 0.305 0.324v0c0.379 0.402 0.728 0.805 1.046 1.209 0.313 0.4 0.659 0.8 1.038 1.202v0c0.167 0.176 0.348 0.348 0.543 0.515 0.191 0.172 0.386 0.33 0.587 0.475v0c0.132 0.237 0.306 0.471 0.524 0.701v0c0.116 0.122 0.234 0.223 0.356 0.303 0.126 0.085 0.247 0.188 0.363 0.31v0c0.167 0.176 0.224 0.349 0.171 0.52-0.057 0.165 0.006 0.31 0.188 0.434v0c-0.127 0.287-0.247 0.567-0.36 0.841-0.108 0.269-0.251 0.52-0.429 0.753v0c-0.07 0.103-0.153 0.191-0.25 0.264-0.097 0.074-0.162 0.162-0.193 0.267v0c-0.056 0.118-0.064 0.251-0.026 0.399 0.034 0.144 0.007 0.258-0.081 0.341v0c-0.103 0.097-0.201 0.116-0.295 0.056-0.094-0.06-0.19-0.094-0.29-0.101v0c-0.121 0.049-0.208 0.099-0.262 0.15-0.054 0.051-0.133 0.075-0.238 0.072v0c-0.129-0.175-0.274-0.26-0.436-0.256-0.162 0.005-0.361-0.117-0.597-0.367v0c-0.18-0.191-0.339-0.389-0.477-0.592-0.142-0.199-0.303-0.395-0.484-0.586v0c-0.153-0.162-0.314-0.288-0.482-0.378-0.164-0.086-0.34-0.193-0.527-0.323v0c-0.084-0.05-0.151-0.121-0.202-0.213-0.05-0.082-0.108-0.158-0.172-0.226v0c-0.301-0.318-0.616-0.627-0.946-0.928-0.335-0.305-0.65-0.614-0.946-0.927v0c-0.116-0.122-0.224-0.237-0.326-0.345-0.097-0.103-0.189-0.215-0.277-0.337v0c-0.068-0.14-0.119-0.258-0.154-0.355-0.04-0.092-0.111-0.191-0.213-0.299v0c-0.315-0.333-0.659-0.629-1.033-0.887-0.384-0.259-0.723-0.545-1.02-0.858v0c-0.167-0.176-0.333-0.362-0.499-0.558-0.166-0.195-0.332-0.381-0.499-0.557v0c-0.481-0.509-0.963-1-1.445-1.471-0.482-0.481-0.955-0.966-1.418-1.455v0c-0.333-0.353-0.654-0.707-0.963-1.064-0.304-0.361-0.623-0.718-0.957-1.071v0c-0.416-0.441-0.846-0.86-1.287-1.259-0.442-0.399-0.877-0.826-1.308-1.281v0c-0.148-0.157-0.257-0.253-0.328-0.288-0.07-0.035-0.125-0.039-0.164-0.012-0.044 0.023-0.092 0.05-0.145 0.082-0.053 0.032-0.123 0.037-0.208 0.015v0c-0.097-0.103-0.123-0.218-0.076-0.345 0.046-0.127-0.046-0.313-0.277-0.558v0c-0.134-0.142-0.283-0.27-0.447-0.385-0.159-0.119-0.303-0.247-0.432-0.384v0c-0.199-0.211-0.354-0.463-0.465-0.756-0.111-0.294-0.225-0.571-0.341-0.832v0c0.192-0.219 0.339-0.357 0.441-0.417 0.097-0.054 0.171-0.143 0.222-0.265v0c0.234 0.15 0.444 0.146 0.629-0.011 0.186-0.157 0.366-0.285 0.54-0.385v0c0.171-0.133 0.362-0.24 0.574-0.32 0.202-0.08 0.375-0.187 0.517-0.321v0c0.136 0.075 0.284 0.08 0.442 0.012 0.154-0.062 0.309-0.134 0.464-0.215v0c0.123-0.154 0.176-0.319 0.157-0.496-0.023-0.182 0.036-0.34 0.178-0.474v0c0.103-0.097 0.297-0.137 0.582-0.12 0.281 0.013 0.497 0.031 0.649 0.055v0c0.119-0.011 0.36-0.021 0.723-0.03 0.358-0.004 0.739-0.022 1.146-0.054 0.401-0.036 0.776-0.061 1.124-0.075 0.358-0.014 0.568-0.036 0.631-0.068v0c1.405 0.035 2.699 0.055 3.881 0.06 1.182-0.005 2.365-0.117 3.548-0.336v0c0.07 0.035 0.134 0.059 0.191 0.07 0.062 0.007 0.135 0.021 0.221 0.042v0c0.13 0.137 0.202 0.268 0.217 0.392 0.011 0.119 0.067 0.233 0.169 0.341v0c0.046 0.049 0.11 0.086 0.19 0.112 0.075 0.031 0.139 0.073 0.19 0.127v0c0.084 0.05 0.152 0.112 0.202 0.185 0.046 0.068 0.103 0.139 0.173 0.212v0c0.162 0.171 0.366 0.275 0.613 0.31 0.252 0.031 0.461 0.135 0.627 0.311v0c0.114 0.189 0.133 0.352 0.058 0.488-0.075 0.136-0.122 0.263-0.139 0.382v0c-0.002 0.067 0.01 0.139 0.036 0.215 0.022 0.082 0.031 0.156 0.03 0.223v0c-0.22 0.542-0.347 0.972-0.38 1.29-0.037 0.314-0.085 0.632-0.141 0.954v0c-0.021 0.085-0.056 0.225-0.105 0.419-0.048 0.194-0.097 0.388-0.145 0.582-0.049 0.204-0.08 0.391-0.095 0.562-0.015 0.181 0.004 0.298 0.055 0.352v0c0.116 0.122 0.351 0.224 0.706 0.306 0.36 0.077 0.632 0.144 0.817 0.202v0c0.497 0.133 0.969 0.28 1.417 0.44 0.444 0.156 0.905 0.29 1.383 0.404v0c0.871 0.215 1.727 0.459 2.567 0.73 0.836 0.276 1.667 0.552 2.493 0.829zM53.895 41.12v0c-0.883-0.13-1.751-0.181-2.605-0.152-0.863 0.028-1.721 0.013-2.573-0.044v0l-0.335 0.219c-0.274-0.074-0.54-0.115-0.797-0.122-0.257-0.007-0.521-0.017-0.793-0.03v0c0.2 0.182 0.383 0.361 0.55 0.538 0.162 0.171 0.336 0.355 0.52 0.551v0c0.532 0.563 1.038 1.123 1.519 1.68 0.485 0.562 0.984 1.114 1.497 1.658v0c0.514 0.544 1.029 1.04 1.545 1.488v0c0.372-0.352 0.608-0.774 0.708-1.267v0c0.039-0.204 0.064-0.403 0.074-0.599 0.015-0.2 0.042-0.402 0.081-0.605v0c0.059-0.222 0.121-0.48 0.187-0.774 0.07-0.298 0.141-0.597 0.211-0.895 0.07-0.298 0.126-0.592 0.168-0.882 0.042-0.29 0.056-0.544 0.043-0.764z" fill="#ffffff" data-fill-palette-color="primary"></path><path d="M127.291 25.469v0c-0.089 0.147-0.202 0.251-0.339 0.312-0.133 0.053-0.271 0.098-0.415 0.133v0c-0.313 0.251-0.669 0.425-1.068 0.524v0c-0.289-0.075-0.441-0.086-0.456-0.034-0.008 0.051-0.043 0.108-0.104 0.171v0c-0.311 0.257-0.607 0.423-0.886 0.5-0.278 0.082-0.498 0.206-0.659 0.37v0c-0.217-0.092-0.366-0.274-0.446-0.546-0.079-0.265-0.165-0.487-0.258-0.665v0c-0.158-0.135-0.29-0.317-0.395-0.548-0.114-0.236-0.212-0.482-0.296-0.739-0.089-0.249-0.18-0.493-0.274-0.734-0.094-0.241-0.212-0.44-0.356-0.6v0c-0.049-0.113-0.082-0.219-0.099-0.319-0.009-0.095-0.052-0.195-0.127-0.302v0c-0.072-0.406-0.163-0.72-0.273-0.942-0.104-0.224-0.21-0.458-0.319-0.702v0c-0.062-0.137-0.114-0.295-0.157-0.471-0.043-0.177-0.145-0.294-0.306-0.352v0c-0.009-0.345-0.059-0.593-0.151-0.743-0.086-0.152-0.157-0.298-0.212-0.437v0c-0.073-0.183-0.137-0.386-0.191-0.609-0.055-0.222-0.128-0.423-0.221-0.601v0c-0.421-1.09-0.852-2.177-1.292-3.263-0.442-1.092-0.87-2.183-1.285-3.274v0c-0.115 0.153-0.173 0.355-0.174 0.604-0.001 0.25-0.001 0.476 0 0.677v0c-0.041 0.454-0.065 0.918-0.074 1.392 0 0.479-0.008 0.942-0.022 1.39v0c-0.006 0.203 0.006 0.432 0.034 0.689 0.027 0.25 0.028 0.479 0.003 0.686v0c-0.068 0.738-0.129 1.378-0.184 1.919-0.056 0.534-0.102 1.08-0.138 1.637v0c0.023 0.293 0.044 0.572 0.061 0.838 0.012 0.275 0.027 0.545 0.043 0.812v0c0.016 0.149 0.029 0.357 0.04 0.625 0.019 0.273 0.02 0.474 0.002 0.603v0c-0.017 0.129-0.036 0.22-0.057 0.274-0.028 0.055-0.014 0.139 0.041 0.25v0c-0.149 0.411-0.213 0.84-0.194 1.287 0.025 0.438-0.022 0.883-0.14 1.335v0c0.069 0.281 0.026 0.556-0.13 0.823v0c-0.113 0.049-0.219 0.099-0.317 0.151-0.1 0.045-0.2 0.119-0.3 0.219v0c-0.129-0.017-0.27-0.013-0.424 0.011-0.16 0.026-0.309 0.055-0.446 0.089v0c-0.123 0.009-0.24-0.003-0.353-0.038-0.106-0.036-0.221-0.053-0.346-0.05v0c-0.152-0.108-0.309-0.198-0.472-0.269-0.171-0.076-0.339-0.152-0.504-0.23v0c-0.231-0.318-0.42-0.521-0.566-0.61v0c-0.136-0.244-0.291-0.463-0.463-0.656-0.173-0.193-0.316-0.425-0.432-0.695v0c-0.136-0.244-0.284-0.464-0.444-0.661-0.159-0.197-0.329-0.408-0.509-0.635v0c-0.086-0.152-0.178-0.3-0.276-0.442-0.096-0.136-0.2-0.277-0.312-0.423v0c-0.066-0.185-0.186-0.405-0.36-0.66-0.18-0.254-0.319-0.48-0.417-0.678v0c-0.006-0.026-0.076-0.141-0.21-0.344-0.14-0.202-0.281-0.423-0.424-0.666-0.148-0.234-0.29-0.446-0.426-0.634-0.132-0.197-0.213-0.301-0.244-0.315v0c-0.075-0.106-0.141-0.208-0.2-0.305-0.067-0.102-0.14-0.215-0.22-0.341v0c-0.167-0.285-0.362-0.567-0.582-0.845-0.216-0.287-0.431-0.553-0.644-0.799v0c-0.176-0.207-0.314-0.415-0.415-0.627-0.101-0.211-0.213-0.413-0.336-0.604v0c-0.075-0.106-0.14-0.202-0.195-0.285-0.063-0.088-0.133-0.186-0.207-0.293v0c-0.08-0.126-0.162-0.262-0.246-0.408-0.089-0.138-0.177-0.283-0.264-0.434v0c-0.106 0.075-0.135 0.186-0.084 0.333 0.052 0.154 0.079 0.293 0.082 0.417v0c0.017 0.266 0.056 0.524 0.117 0.772 0.061 0.249 0.113 0.503 0.157 0.763v0c0.017 0.294 0.035 0.578 0.053 0.851 0.017 0.266 0.045 0.534 0.083 0.802v0c0.155 0.628 0.277 1.267 0.368 1.918v0c0.088 0.582 0.17 1.169 0.246 1.761 0.068 0.587 0.165 1.191 0.29 1.812v0c0.109 0.445 0.172 0.894 0.186 1.349 0.016 0.461 0.105 0.921 0.267 1.381v0c-0.023 0.103-0.029 0.177-0.018 0.223 0.011 0.046 0.029 0.118 0.053 0.216v0c0.029 0.118 0.054 0.247 0.075 0.388 0.022 0.147 0.048 0.28 0.077 0.397v0c0.052 0.209 0.109 0.344 0.172 0.405v0c-0.02 0.227 0 0.465 0.061 0.714 0.06 0.242 0.118 0.481 0.177 0.716v0c-0.022 0.109-0.028 0.212-0.019 0.307 0.016 0.093 0 0.198-0.047 0.313v0c0.118 0.394 0.049 0.623-0.206 0.686v0c-0.072 0.018-0.152 0.017-0.241-0.004-0.093-0.012-0.171-0.048-0.234-0.108v0c-0.255 0.091-0.417 0.068-0.486-0.068-0.067-0.129-0.156-0.17-0.269-0.121v0c-0.252 0.187-0.404 0.262-0.454 0.226-0.044-0.038-0.122-0.029-0.233 0.026v0c-0.236-0.143-0.382-0.197-0.436-0.163-0.052 0.041-0.102 0.067-0.147 0.077v0c-0.227-0.02-0.349-0.008-0.365 0.038-0.012 0.038-0.053 0.065-0.126 0.083v0c-0.147-0.089-0.322-0.108-0.524-0.058-0.196 0.048-0.37 0.077-0.52 0.086v0c-0.042-0.087-0.079-0.168-0.112-0.243-0.034-0.082-0.066-0.182-0.094-0.299v0c-0.035-0.144-0.062-0.28-0.08-0.407-0.019-0.134-0.046-0.273-0.082-0.417v0c-0.027-0.111-0.064-0.231-0.109-0.359-0.045-0.128-0.088-0.273-0.128-0.436v0c-0.04-0.164-0.067-0.327-0.079-0.491-0.017-0.155-0.049-0.328-0.096-0.518v0c-0.016-0.065-0.041-0.125-0.076-0.179-0.041-0.052-0.073-0.128-0.097-0.226v0c0.07-0.336 0.077-0.591 0.02-0.764-0.057-0.173-0.092-0.345-0.106-0.515v0c-0.052-0.41-0.111-0.816-0.174-1.217-0.056-0.396-0.11-0.799-0.163-1.209v0c-0.161-0.654-0.279-1.205-0.354-1.651-0.067-0.441-0.123-0.893-0.166-1.354v0c-0.001-0.229-0.007-0.439-0.02-0.63-0.014-0.198-0.024-0.407-0.03-0.627v0c-0.035-0.366-0.097-0.746-0.187-1.141-0.082-0.389-0.146-0.776-0.192-1.16v0c-0.093-0.602-0.177-1.198-0.253-1.79-0.07-0.593-0.151-1.177-0.243-1.751v0c-0.064-0.456-0.12-0.911-0.17-1.364-0.047-0.446-0.12-0.869-0.218-1.268v0c-0.052-0.209-0.089-0.488-0.112-0.836-0.022-0.342-0.048-0.633-0.08-0.876v0c-0.093-0.574-0.185-1.134-0.278-1.68-0.101-0.551-0.218-1.098-0.352-1.641v0l-0.094-0.383c-0.011-0.046 0-0.097 0.034-0.154 0.033-0.064 0.035-0.154 0.006-0.272v0c-0.052-0.209-0.035-0.366 0.051-0.47 0.09-0.112 0.145-0.272 0.164-0.478v0c0.118-0.029 0.258-0.05 0.421-0.062 0.155-0.017 0.283 0.024 0.385 0.124v0c0.152-0.086 0.31-0.149 0.474-0.189 0.164-0.04 0.29-0.134 0.378-0.281v0c0.144-0.035 0.257-0.025 0.341 0.031 0.09 0.054 0.199 0.09 0.328 0.106v0c0.08-0.068 0.165-0.134 0.253-0.197 0.084-0.055 0.169-0.118 0.256-0.188v0c0.077 0.03 0.142 0.069 0.195 0.118 0.047 0.051 0.11 0.08 0.189 0.089v0c0.329-0.185 0.561-0.256 0.697-0.213v0c0.068 0.08 0.121 0.168 0.158 0.263 0.029 0.09 0.068 0.178 0.117 0.263v0c0.293 0.178 0.512 0.405 0.657 0.681 0.138 0.278 0.331 0.512 0.578 0.701v0c0.081 0.133 0.168 0.26 0.261 0.383 0.094 0.129 0.187 0.28 0.278 0.452v0l0.211 0.396c0.156 0.211 0.344 0.467 0.564 0.766v0c0.227 0.416 0.445 0.848 0.652 1.297 0.212 0.44 0.472 0.834 0.78 1.182v0c0.062 0.137 0.146 0.297 0.253 0.479 0.109 0.188 0.203 0.346 0.283 0.472v0c0.262 0.359 0.529 0.713 0.802 1.061 0.272 0.343 0.531 0.719 0.778 1.131v0c0.253 0.409 0.49 0.837 0.711 1.282 0.221 0.445 0.467 0.87 0.741 1.275v0c0.249 0.39 0.431 0.667 0.548 0.833 0.112 0.174 0.25 0.341 0.415 0.501v0c0.018 0.072 0.066 0.185 0.146 0.339 0.073 0.156 0.167 0.313 0.283 0.472 0.115 0.159 0.224 0.306 0.326 0.44 0.109 0.133 0.203 0.203 0.281 0.212v0c0.061-0.064 0.086-0.143 0.077-0.238-0.018-0.1 0.001-0.194 0.055-0.284v0c-0.037-0.262-0.072-0.589-0.106-0.983-0.033-0.387-0.019-0.713 0.04-0.978v0c-0.029-0.118-0.053-0.341-0.071-0.67-0.02-0.335-0.029-0.694-0.026-1.076 0.001-0.389 0.007-0.748 0.017-1.076 0.004-0.32 0.034-0.525 0.088-0.615v0c-0.03-0.319-0.034-0.519-0.013-0.6 0.017-0.073 0.041-0.142 0.074-0.206v0c-0.019-0.19-0.013-0.375 0.02-0.556 0.025-0.18 0.027-0.368 0.007-0.564v0c-0.052-0.41-0.075-0.755-0.068-1.035 0.009-0.273 0.026-0.614 0.051-1.022v0c0.011-0.35 0.017-0.705 0.018-1.066-0.005-0.36 0.011-0.717 0.048-1.073v0c0.061-0.966 0.117-1.822 0.169-2.571 0.053-0.742 0.166-1.484 0.337-2.227v0c0.014-0.225 0.041-0.368 0.082-0.426 0.033-0.064 0.067-0.124 0.101-0.181v0c0.172-0.119 0.356-0.202 0.553-0.251 0.203-0.05 0.412-0.088 0.628-0.113v0c0.213-0.15 0.364-0.298 0.452-0.444v0c0.121 0.095 0.276 0.119 0.466 0.073v0c0.236-0.058 0.381-0.17 0.437-0.337v0c0.109 0.022 0.188 0.016 0.236-0.016 0.052-0.041 0.143-0.053 0.272-0.036v0c0.041-0.059 0.087-0.126 0.138-0.201 0.057-0.077 0.122-0.124 0.194-0.141v0c0.248 0.189 0.44 0.336 0.577 0.441 0.137 0.105 0.248 0.234 0.334 0.386v0c0.123 0.192 0.222 0.41 0.297 0.656 0.066 0.24 0.185 0.454 0.356 0.641v0c0.054 0.306 0.188 0.762 0.399 1.369 0.213 0.614 0.444 1.254 0.692 1.922 0.256 0.673 0.502 1.292 0.738 1.858 0.243 0.565 0.414 0.908 0.513 1.029v0c0.056 0.312 0.133 0.568 0.23 0.766 0.099 0.205 0.174 0.412 0.226 0.621v0c0.018 0.072 0.067 0.216 0.148 0.431 0.074 0.218 0.155 0.448 0.243 0.69 0.086 0.236 0.172 0.461 0.259 0.675 0.089 0.221 0.158 0.374 0.207 0.459v0c0.105 0.425 0.254 0.735 0.448 0.931v0c0.263 0.56 0.509 1.124 0.739 1.692 0.223 0.57 0.446 1.15 0.667 1.74v0c0.121 0.296 0.223 0.583 0.306 0.861 0.082 0.278 0.183 0.562 0.303 0.852v0c0.055 0.111 0.114 0.222 0.176 0.332 0.068 0.108 0.127 0.219 0.175 0.331v0c0.104 0.224 0.194 0.438 0.272 0.641 0.079 0.209 0.168 0.413 0.265 0.611v0c0.049 0.113 0.112 0.229 0.19 0.349 0.085 0.118 0.118 0.252 0.099 0.402v0c0.093 0.151 0.156 0.323 0.189 0.516 0.034 0.193 0.113 0.347 0.239 0.462v0c0.122 0.497 0.265 0.923 0.429 1.278v0c0.095 0.275 0.237 0.538 0.424 0.791v0c0.115 0.27 0.227 0.555 0.335 0.854 0.115 0.298 0.232 0.592 0.352 0.882z" fill="#ffffff" data-fill-palette-color="primary"></path><path d="M185.796 19.287v0c-0.079 0.075-0.153 0.147-0.223 0.217-0.068 0.064-0.127 0.141-0.175 0.233v0c0.063 0.117 0.118 0.239 0.164 0.366 0.053 0.128 0.062 0.251 0.028 0.367v0c-0.029 0.097-0.071 0.179-0.127 0.246-0.064 0.072-0.094 0.148-0.089 0.227v0c-0.145 0.132-0.29 0.251-0.434 0.355-0.146 0.111-0.266 0.24-0.359 0.389v0c-0.117 0.063-0.22 0.135-0.307 0.214-0.085 0.073-0.167 0.147-0.246 0.221v0c-0.125 0.019-0.223 0.074-0.292 0.166-0.063 0.094-0.154 0.161-0.272 0.203v0c-0.046 0.085-0.225 0.27-0.536 0.557-0.317 0.285-0.661 0.586-1.031 0.904-0.376 0.316-0.736 0.624-1.078 0.922-0.345 0.305-0.579 0.502-0.705 0.591v0c-0.078 0.096-0.157 0.171-0.236 0.224-0.079 0.054-0.168 0.115-0.266 0.184v0c-0.066 0.057-0.125 0.124-0.176 0.201-0.043 0.072-0.093 0.123-0.152 0.155v0c-0.081 0.081-0.161 0.149-0.24 0.202-0.071 0.049-0.15 0.124-0.236 0.225v0c-0.323 0.234-0.661 0.526-1.013 0.878-0.356 0.343-0.689 0.645-0.998 0.903v0c-0.172 0.152-0.338 0.307-0.498 0.463-0.159 0.156-0.324 0.307-0.494 0.453v0c-0.172 0.152-0.341 0.292-0.506 0.419-0.165 0.127-0.333 0.266-0.505 0.418v0c-0.223 0.088-0.435 0.207-0.635 0.358-0.196 0.159-0.407 0.279-0.635 0.359v0c-0.303-0.091-0.449-0.286-0.436-0.585v0c-0.276-0.16-0.424-0.204-0.446-0.134-0.021 0.071-0.039 0.129-0.052 0.175v0c-0.11 0.016-0.196 0.068-0.258 0.155-0.059 0.081-0.144 0.129-0.254 0.145v0c-0.167-0.099-0.3-0.22-0.398-0.362-0.098-0.142-0.266-0.238-0.504-0.288v0c-0.05-0.163-0.116-0.316-0.2-0.461-0.085-0.138-0.156-0.279-0.211-0.422v0c-0.011-0.151-0.041-0.287-0.089-0.407-0.057-0.116-0.107-0.229-0.151-0.34v0c-0.03-0.136-0.066-0.262-0.108-0.381-0.044-0.112-0.088-0.223-0.132-0.335v0c-0.098-0.261-0.191-0.511-0.281-0.749-0.088-0.245-0.16-0.488-0.214-0.729v0c-0.104-0.334-0.2-0.672-0.287-1.014-0.087-0.343-0.183-0.681-0.287-1.015v0c-0.05-0.163-0.098-0.328-0.146-0.497-0.056-0.165-0.098-0.328-0.127-0.492v0c-0.01-0.13-0.03-0.287-0.059-0.471-0.036-0.186-0.105-0.32-0.208-0.4v0c0.011-0.201-0.028-0.364-0.117-0.489-0.087-0.132-0.169-0.283-0.244-0.453v0c-0.105-0.236-0.193-0.483-0.262-0.743-0.076-0.262-0.15-0.53-0.223-0.806v0c-0.263-0.789-0.504-1.558-0.723-2.305-0.221-0.741-0.427-1.51-0.617-2.306v0c0.226-0.333 0.368-0.593 0.424-0.781 0.054-0.181 0.157-0.312 0.308-0.393v0c0.029-0.097 0.093-0.229 0.192-0.396v0c0.456-0.419 0.886-0.797 1.289-1.132v0c0.37-0.318 0.645-0.591 0.826-0.819 0.185-0.219 0.377-0.45 0.577-0.692v0c0.137-0.036 0.254-0.096 0.349-0.18 0.102-0.082 0.226-0.154 0.371-0.216v0c0.121-0.238 0.288-0.42 0.501-0.546 0.214-0.126 0.384-0.307 0.511-0.543v0c0.257-0.106 0.429-0.258 0.517-0.457v0c0.359-0.118 0.626-0.34 0.801-0.667v0c0.243-0.131 0.461-0.294 0.654-0.49 0.199-0.194 0.394-0.399 0.585-0.616v0c0.347-0.149 0.657-0.383 0.929-0.703v0c0.171-0.054 0.316-0.151 0.435-0.292 0.113-0.142 0.245-0.254 0.396-0.335v0c0.278-0.247 0.498-0.452 0.659-0.615 0.163-0.169 0.334-0.34 0.512-0.511v0c0.161 0.048 0.285 0.022 0.372-0.078 0.08-0.103 0.184-0.121 0.311-0.055v0c0.064-0.213 0.178-0.383 0.343-0.509v0c0.051-0.006 0.131-0.014 0.239-0.023 0.1-0.005 0.157-0.03 0.17-0.076v0c0.038-0.291 0.099-0.449 0.184-0.472 0.086-0.03 0.159-0.061 0.218-0.093v0c0.238 0.121 0.402 0.208 0.491 0.263 0.083 0.053 0.207 0.178 0.373 0.376v0c0.232 0.07 0.38 0.163 0.443 0.28 0.068 0.126 0.153 0.229 0.256 0.309v0c0.063 0.117 0.109 0.233 0.138 0.348 0.031 0.108 0.098 0.202 0.201 0.281v0c0.11 0.314 0.223 0.651 0.341 1.01 0.116 0.365 0.228 0.705 0.338 1.019v0c0.156 0.419 0.318 0.827 0.488 1.223 0.172 0.389 0.318 0.806 0.438 1.249v0c0.036 0.137 0.104 0.379 0.204 0.726 0.096 0.338 0.21 0.707 0.344 1.106 0.136 0.392 0.257 0.749 0.365 1.069 0.099 0.325 0.178 0.521 0.235 0.588v0c0.036 0.137 0.122 0.402 0.258 0.795 0.136 0.392 0.282 0.809 0.438 1.249 0.158 0.434 0.317 0.855 0.477 1.261 0.155 0.398 0.267 0.657 0.337 0.777v0c0.147 0.424 0.252 0.765 0.315 1.023 0.063 0.258 0.114 0.534 0.153 0.827zM175.88 23.436v0c0.356-0.273 0.647-0.527 0.872-0.762 0.219-0.237 0.441-0.473 0.666-0.708v0c0.316-0.208 0.513-0.363 0.593-0.466 0.08-0.103 0.173-0.201 0.279-0.296v0c0.264-0.223 0.537-0.444 0.821-0.661 0.277-0.219 0.523-0.476 0.737-0.771v0c0.169-0.048 0.31-0.132 0.424-0.253 0.105-0.116 0.246-0.211 0.423-0.285v0c0.005-0.533-0.043-0.959-0.145-1.277-0.108-0.321-0.217-0.638-0.326-0.953v0c-0.03-0.136-0.064-0.269-0.102-0.4-0.036-0.137-0.072-0.275-0.108-0.412v0c-0.069-0.098-0.122-0.191-0.159-0.28-0.037-0.088-0.081-0.176-0.133-0.261v0c-0.01-0.13-0.033-0.302-0.067-0.516v0c-0.062-0.145-0.125-0.277-0.188-0.394-0.061-0.124-0.107-0.264-0.137-0.421v0c-0.068-0.126-0.145-0.29-0.233-0.492-0.094-0.204-0.186-0.425-0.276-0.663-0.088-0.245-0.165-0.471-0.228-0.68-0.064-0.209-0.114-0.382-0.15-0.52v0c-0.01-0.13-0.023-0.239-0.039-0.328-0.007-0.094-0.02-0.192-0.038-0.296v0c-0.068-0.196-0.14-0.376-0.218-0.541-0.077-0.164-0.15-0.344-0.218-0.54v0c-0.085 0.024-0.158 0.034-0.219 0.029-0.062-0.005-0.122 0.009-0.181 0.041v0c-0.252 0.255-0.513 0.479-0.783 0.673-0.277 0.198-0.554 0.418-0.83 0.659v0c-0.245 0.229-0.491 0.465-0.739 0.706-0.248 0.242-0.495 0.478-0.74 0.707v0c-0.165 0.127-0.322 0.252-0.471 0.376-0.148 0.117-0.308 0.252-0.48 0.405v0c-0.165 0.127-0.315 0.264-0.451 0.413-0.13 0.151-0.277 0.29-0.442 0.416v0c-0.257 0.176-0.47 0.337-0.64 0.484-0.172 0.152-0.355 0.34-0.549 0.563v0c0.03 0.157 0.083 0.38 0.158 0.67 0.075 0.29 0.16 0.579 0.257 0.868 0.088 0.294 0.162 0.562 0.222 0.806 0.065 0.252 0.101 0.414 0.108 0.485v0c0.139 0.217 0.233 0.443 0.283 0.676 0.056 0.235 0.151 0.471 0.284 0.708v0c0.034 0.214 0.089 0.407 0.164 0.577 0.074 0.177 0.144 0.363 0.212 0.559v0c0.068 0.196 0.148 0.48 0.241 0.853 0.094 0.366 0.183 0.737 0.267 1.114 0.088 0.385 0.185 0.745 0.289 1.078 0.104 0.334 0.203 0.553 0.298 0.66v0c0.303-0.19 0.579-0.417 0.827-0.681 0.243-0.272 0.532-0.495 0.865-0.669z" fill="#ffffff" data-fill-palette-color="primary"></path><path d="M227.723 61.37v0c-0.267 0.248-0.399 0.5-0.394 0.757 0.005 0.257-0.043 0.525-0.143 0.804v0c-0.273 0.205-0.433 0.42-0.482 0.644v0c-0.147 0.055-0.31 0.122-0.49 0.202-0.18 0.079-0.363 0.114-0.548 0.103v0c-0.398-0.15-0.666-0.207-0.804-0.172-0.133 0.04-0.279-0.016-0.439-0.171v0c-0.171 0.003-0.355 0.004-0.55 0.003-0.196-0.011-0.379-0.015-0.551-0.012v0c-0.055-0.118-0.073-0.22-0.055-0.306 0.013-0.081 0.027-0.198 0.044-0.351v0c-0.123-0.222-0.192-0.466-0.206-0.733-0.014-0.267 0.007-0.531 0.064-0.794 0.052-0.268 0.119-0.541 0.2-0.819 0.086-0.273 0.167-0.522 0.244-0.748v0c0.193-0.685 0.385-1.379 0.578-2.083 0.192-0.704 0.378-1.41 0.556-2.118v0c0.075-0.359 0.164-0.718 0.267-1.077 0.094-0.359 0.19-0.73 0.287-1.113v0c-0.001-0.067 0.002-0.138 0.011-0.214 0.003-0.081 0.014-0.165 0.031-0.251v0c0.043-0.287 0.138-0.569 0.285-0.849 0.152-0.274 0.199-0.575 0.141-0.903v0c-0.297-0.352-0.642-0.591-1.034-0.718-0.398-0.131-0.802-0.193-1.212-0.185v0c-0.102 0.135-0.203 0.254-0.301 0.355-0.103 0.107-0.206 0.213-0.309 0.32v0c-0.384 0.398-0.77 0.764-1.159 1.1-0.385 0.331-0.769 0.695-1.153 1.093v0c-0.168 0.175-0.332 0.363-0.49 0.566-0.163 0.198-0.312 0.401-0.447 0.608v0c-0.231 0.142-0.456 0.327-0.676 0.555v0c-0.117 0.121-0.212 0.244-0.287 0.37-0.079 0.13-0.177 0.256-0.293 0.377v0c-0.168 0.175-0.339 0.239-0.512 0.195-0.168-0.049-0.309 0.02-0.425 0.207v0c-0.293-0.114-0.578-0.221-0.856-0.32-0.273-0.095-0.531-0.226-0.772-0.394v0c-0.106-0.065-0.198-0.144-0.276-0.238-0.078-0.094-0.17-0.154-0.275-0.181v0c-0.12-0.05-0.253-0.053-0.4-0.007-0.142 0.041-0.257 0.019-0.344-0.066v0c-0.102-0.098-0.125-0.196-0.07-0.292 0.055-0.096 0.085-0.194 0.088-0.294v0c-0.055-0.118-0.108-0.203-0.162-0.255-0.053-0.051-0.081-0.13-0.082-0.234v0c0.169-0.136 0.247-0.286 0.235-0.447-0.012-0.162 0.101-0.366 0.339-0.614v0c0.182-0.189 0.372-0.357 0.57-0.503 0.193-0.151 0.38-0.321 0.563-0.51v0c0.154-0.16 0.273-0.326 0.355-0.5 0.078-0.168 0.177-0.349 0.298-0.541v0c0.046-0.087 0.114-0.157 0.204-0.211 0.08-0.054 0.153-0.115 0.218-0.183v0c0.304-0.315 0.599-0.644 0.883-0.987 0.289-0.348 0.584-0.677 0.883-0.988v0c0.117-0.121 0.227-0.235 0.33-0.342 0.098-0.102 0.206-0.199 0.324-0.292v0c0.137-0.074 0.253-0.131 0.347-0.17 0.09-0.044 0.186-0.12 0.289-0.227v0c0.318-0.33 0.598-0.687 0.839-1.073 0.241-0.395 0.511-0.748 0.81-1.058v0c0.168-0.175 0.346-0.349 0.534-0.524 0.188-0.175 0.365-0.35 0.534-0.524v0c0.487-0.504 0.954-1.008 1.402-1.511 0.458-0.504 0.921-0.998 1.389-1.483v0c0.337-0.349 0.676-0.686 1.019-1.012 0.347-0.321 0.689-0.655 1.026-1.004v0c0.421-0.436 0.821-0.884 1.198-1.344 0.378-0.459 0.784-0.914 1.219-1.365v0c0.15-0.155 0.241-0.269 0.273-0.341 0.032-0.072 0.033-0.127 0.004-0.164-0.025-0.042-0.054-0.09-0.088-0.142-0.034-0.052-0.043-0.121-0.025-0.206v0c0.098-0.102 0.212-0.132 0.342-0.092 0.129 0.041 0.311-0.06 0.545-0.303v0c0.136-0.141 0.257-0.295 0.363-0.464 0.111-0.164 0.233-0.314 0.364-0.449v0c0.201-0.208 0.446-0.375 0.734-0.5 0.288-0.124 0.56-0.251 0.815-0.379v0c0.227 0.182 0.373 0.322 0.437 0.422 0.059 0.094 0.151 0.164 0.275 0.209v0c-0.139 0.241-0.125 0.45 0.04 0.628 0.165 0.178 0.302 0.352 0.409 0.522v0c0.141 0.164 0.256 0.35 0.346 0.559 0.089 0.199 0.204 0.366 0.345 0.501v0c-0.069 0.139-0.066 0.287 0.008 0.443 0.069 0.151 0.148 0.302 0.237 0.453v0c0.159 0.116 0.327 0.161 0.502 0.134 0.18-0.032 0.341 0.02 0.482 0.156v0c0.102 0.098 0.15 0.29 0.146 0.576 0 0.281-0.008 0.498-0.024 0.651v0c0.016 0.119 0.037 0.359 0.063 0.721 0.021 0.357 0.056 0.738 0.106 1.142 0.055 0.399 0.097 0.773 0.127 1.12 0.03 0.357 0.062 0.566 0.097 0.627v0c0.03 1.405 0.069 2.698 0.118 3.879 0.059 1.181 0.225 2.357 0.499 3.529v0c-0.032 0.072-0.052 0.137-0.061 0.194-0.004 0.062-0.014 0.136-0.032 0.222v0c-0.131 0.136-0.258 0.214-0.382 0.236-0.119 0.016-0.23 0.078-0.332 0.185v0c-0.047 0.048-0.081 0.113-0.104 0.194-0.027 0.077-0.067 0.142-0.118 0.195v0c-0.046 0.087-0.104 0.157-0.175 0.211-0.066 0.049-0.134 0.11-0.204 0.182v0c-0.164 0.17-0.258 0.379-0.282 0.627-0.019 0.253-0.113 0.467-0.282 0.641v0c-0.184 0.122-0.345 0.149-0.484 0.08-0.139-0.069-0.269-0.11-0.388-0.122v0c-0.067 0.001-0.138 0.017-0.214 0.047-0.081 0.025-0.154 0.038-0.221 0.04v0c-0.551-0.195-0.987-0.302-1.306-0.32-0.315-0.023-0.635-0.055-0.96-0.098v0c-0.086-0.018-0.227-0.046-0.423-0.085-0.196-0.039-0.392-0.079-0.588-0.118-0.206-0.039-0.394-0.062-0.566-0.069-0.181-0.006-0.298 0.017-0.349 0.071v0c-0.117 0.121-0.208 0.361-0.273 0.719-0.06 0.363-0.115 0.638-0.164 0.825v0c-0.11 0.502-0.235 0.981-0.375 1.436-0.135 0.45-0.248 0.917-0.34 1.4v0c-0.175 0.88-0.379 1.746-0.611 2.598-0.238 0.848-0.475 1.69-0.713 2.529zM232.839 47.556v0c0.089-0.888 0.1-1.758 0.032-2.609-0.068-0.861-0.092-1.719-0.074-2.572v0l-0.235-0.325c0.062-0.277 0.09-0.545 0.086-0.802-0.005-0.257-0.007-0.522-0.007-0.793v0c-0.173 0.208-0.343 0.399-0.511 0.574-0.164 0.17-0.339 0.351-0.527 0.545v0c-0.538 0.558-1.074 1.089-1.608 1.594-0.539 0.51-1.068 1.034-1.588 1.572v0c-0.519 0.538-0.991 1.075-1.415 1.612v0c0.368 0.356 0.801 0.572 1.298 0.648v0c0.205 0.03 0.406 0.045 0.601 0.047 0.2 0.006 0.403 0.024 0.609 0.054v0c0.225 0.048 0.485 0.099 0.782 0.15 0.301 0.057 0.602 0.113 0.903 0.17 0.301 0.057 0.597 0.099 0.889 0.127 0.291 0.028 0.546 0.031 0.765 0.008z" fill="#ffffff" data-fill-palette-color="primary"></path><path d="M273.896 102.541v0c-0.545-0.103-1.181-0.212-1.908-0.326-0.726-0.114-1.351-0.188-1.872-0.221v0c-0.183-0.017-0.358-0.03-0.524-0.039-0.17 0-0.347-0.009-0.531-0.027v0c-0.384-0.001-0.757-0.036-1.121-0.107-0.371-0.069-0.749-0.117-1.135-0.146v0c-0.528-0.052-1.065-0.108-1.61-0.169-0.539-0.063-1.095-0.113-1.668-0.15v0c-0.537-0.078-0.993-0.125-1.368-0.143-0.375-0.018-0.757-0.036-1.147-0.056-0.392-0.026-0.771-0.035-1.138-0.027-0.366 0.008-0.699 0.022-0.997 0.043v0c-0.439-0.082-0.771-0.163-0.997-0.245v0c-0.431 0.093-0.861 0.186-1.292 0.279-0.424 0.091-0.854 0.208-1.288 0.353v0c-0.211 0.07-0.407 0.153-0.589 0.248-0.188 0.098-0.38 0.193-0.575 0.286v0c-0.292 0.125-0.584 0.229-0.877 0.312-0.286 0.08-0.575 0.183-0.866 0.309v0c-0.569 0.21-1.129 0.427-1.679 0.652-0.552 0.218-1.121 0.439-1.708 0.662v0c-0.409 0.157-0.767 0.254-1.074 0.292-0.3 0.036-0.597 0.116-0.889 0.241v0c-0.068-0.056-0.129-0.121-0.182-0.195-0.045-0.07-0.104-0.132-0.179-0.186v0c-0.083-0.249-0.131-0.418-0.146-0.505-0.013-0.081-0.053-0.149-0.121-0.205v0c0.064-0.256 0.09-0.392 0.077-0.409-0.021-0.021-0.035-0.042-0.041-0.06v0c-0.002-0.305 0.016-0.477 0.052-0.518 0.036-0.04 0.069-0.101 0.099-0.182v0c-0.085-0.256-0.189-0.452-0.312-0.589v0c0.021-0.085 0.047-0.158 0.077-0.217 0.03-0.06 0.059-0.133 0.087-0.22v0c-0.049-0.211-0.077-0.393-0.085-0.547-0.013-0.145-0.012-0.273 0-0.383v0c0.164-0.125 0.3-0.252 0.407-0.38 0.113-0.13 0.285-0.233 0.515-0.309v0c0.185-0.061 0.367-0.093 0.543-0.095 0.175-0.008 0.358-0.033 0.55-0.076v0c0.109-0.036 0.21-0.073 0.304-0.111 0.085-0.042 0.186-0.083 0.301-0.121v0c0.115-0.038 0.273-0.066 0.473-0.082v0c0.501-0.244 1.048-0.457 1.64-0.64 0.586-0.18 1.145-0.358 1.676-0.534v0c0.531-0.176 1.007-0.387 1.43-0.633v0c0.309-0.074 0.523-0.145 0.642-0.213 0.122-0.062 0.249-0.115 0.384-0.16v0c0.115-0.038 0.24-0.069 0.374-0.092 0.13-0.015 0.253-0.041 0.368-0.079v0c0.026-0.008 0.142-0.065 0.349-0.169 0.205-0.11 0.421-0.228 0.649-0.353 0.228-0.125 0.444-0.246 0.646-0.364 0.203-0.117 0.326-0.183 0.371-0.197v0c0.339-0.368 0.672-0.67 0.999-0.906 0.326-0.236 0.594-0.467 0.803-0.692v0c0.156-0.151 0.308-0.301 0.458-0.45 0.154-0.157 0.321-0.305 0.503-0.443v0c0.1-0.083 0.215-0.164 0.345-0.243 0.122-0.083 0.233-0.166 0.333-0.248v0c0.156-0.151 0.329-0.304 0.519-0.46 0.192-0.149 0.339-0.304 0.442-0.466v0c0.173-0.164 0.333-0.313 0.48-0.446 0.145-0.14 0.298-0.237 0.457-0.29v0c0.254-0.155 0.464-0.345 0.631-0.571 0.169-0.219 0.349-0.424 0.541-0.616v0c0.117-0.117 0.228-0.211 0.333-0.281 0.102-0.077 0.204-0.156 0.304-0.239v0c0.075-0.074 0.17-0.173 0.285-0.297 0.107-0.128 0.18-0.248 0.221-0.36v0c0.188-0.119 0.342-0.263 0.464-0.431 0.124-0.162 0.283-0.303 0.477-0.424v0c0.122-0.168 0.24-0.346 0.356-0.533v0c0.314-0.21 0.588-0.443 0.822-0.699 0.235-0.255 0.49-0.503 0.766-0.743v0c0.509-0.069 0.894 0.094 1.152 0.491v0c0.351 0.139 0.547 0.227 0.588 0.263 0.036 0.045 0.081 0.147 0.134 0.307v0c0.16 0.096 0.304 0.201 0.434 0.314 0.128 0.107 0.197 0.261 0.207 0.463v0c0.104-0.006 0.209 0.03 0.313 0.11 0.098 0.081 0.162 0.166 0.191 0.256v0c0.047 0.141 0.02 0.284-0.081 0.431-0.107 0.149-0.176 0.293-0.208 0.431v0c-0.258 0.291-0.503 0.582-0.733 0.871-0.235 0.298-0.49 0.567-0.766 0.808v0c-0.273 0.268-0.548 0.519-0.825 0.752-0.277 0.234-0.525 0.525-0.743 0.875v0c-0.422 0.268-0.791 0.589-1.108 0.963-0.322 0.377-0.687 0.721-1.095 1.034v0c-0.237 0.206-0.462 0.426-0.675 0.66-0.22 0.236-0.458 0.461-0.714 0.673v0c-0.117 0.117-0.236 0.22-0.355 0.31-0.124 0.098-0.249 0.192-0.375 0.283v0c-0.094 0.081-0.226 0.174-0.397 0.281-0.171 0.106-0.302 0.214-0.393 0.322v0c0.213 0.107 0.466 0.176 0.76 0.206v0c0.373 0.054 0.732 0.12 1.077 0.197 0.345 0.077 0.701 0.133 1.067 0.168v0c0.36 0.079 0.714 0.108 1.061 0.085 0.345-0.029 0.697-0.039 1.055-0.03v0c0.132 0.013 0.265 0.029 0.399 0.048 0.134 0.019 0.279 0.028 0.435 0.027v0c0.158 0.026 0.314 0.038 0.469 0.036 0.149 0 0.301-0.001 0.457-0.003v0c0.488 0.016 0.979 0.052 1.474 0.108 0.486 0.052 0.981 0.111 1.485 0.178v0c0.077-0.004 0.199 0.012 0.368 0.049 0.16 0.032 0.33 0.075 0.511 0.129 0.19 0.058 0.357 0.112 0.501 0.164 0.145 0.051 0.251 0.105 0.32 0.16v0c0.06 0.03 0.113 0.094 0.159 0.192 0.049 0.104 0.093 0.186 0.134 0.243v0c0.07 0.211 0.062 0.38-0.023 0.508v0c-0.024 0.313-0.035 0.548-0.033 0.703 0 0.149-0.069 0.285-0.206 0.409v0c-0.116 0.422-0.164 0.725-0.145 0.911 0.025 0.183-0.027 0.346-0.157 0.488v0c-0.077 0.302-0.143 0.491-0.196 0.566-0.056 0.068-0.108 0.135-0.157 0.201z" fill="#ffffff" data-fill-palette-color="primary"></path><path d="M1.957 138.811c0-5.908 4.79-10.698 10.698-10.698 5.908 0 10.698 4.79 10.698 10.698 0 5.908-4.79 10.698-10.698 10.698-5.908 0-10.698-4.79-10.698-10.698z" fill="#ffffff" data-fill-palette-color="primary"></path><path d="M256.647 138.811c0-5.908 4.79-10.698 10.698-10.698 5.908 0 10.698 4.79 10.698 10.698 0 5.908-4.79 10.698-10.698 10.698-5.908 0-10.698-4.79-10.698-10.698z" fill="#ffffff" data-fill-palette-color="primary"></path></g><g id="text-1"><path d="M4.951 179.964l0.022-0.275c-0.067-0.048-0.135-0.099-0.204-0.154-0.067-0.048-0.138-0.098-0.213-0.15v0c-0.22-0.201-0.373-0.401-0.457-0.6-0.078-0.201-0.274-0.386-0.591-0.554v0c0.083-0.129 0.116-0.219 0.099-0.27-0.016-0.045-0.042-0.121-0.081-0.229v0c-0.105-0.299-0.086-0.498 0.058-0.598v0c-0.057-0.08-0.163-0.2-0.319-0.36-0.156-0.16-0.273-0.279-0.351-0.359v0c0.364 0.101 0.637 0.158 0.821 0.173 0.177 0.016 0.338 0.006 0.483-0.03 0.136-0.04 0.279-0.08 0.429-0.118 0.151-0.039 0.378-0.061 0.683-0.068v0c0.105 0.013 0.206 0.017 0.304 0.011 0.102-0.014 0.215-0.018 0.339-0.012v0c0.383-0.006 0.803-0.042 1.257-0.109 0.459-0.075 0.876-0.079 1.25-0.01v0c0.388-0.136 0.78-0.177 1.178-0.124 0.397 0.053 0.796 0.071 1.196 0.052v0c0.151 0.004 0.31 0.02 0.477 0.047 0.16 0.029 0.316 0.046 0.467 0.05v0c0.26 0.009 0.508 0.004 0.745-0.014 0.23-0.016 0.458-0.028 0.683-0.037v0c0.72-0.045 1.435-0.093 2.146-0.142 0.705-0.047 1.412-0.106 2.123-0.176v0c0.123-0.015 0.257-0.03 0.402-0.045 0.147-0.009 0.285-0.011 0.415-0.006v0c0.375-0.01 0.744-0.057 1.107-0.142 0.367-0.093 0.738-0.105 1.112-0.037v0c0.152-0.075 0.301-0.12 0.445-0.135 0.153-0.011 0.317-0.022 0.492-0.033 0.175-0.011 0.336-0.018 0.486-0.02 0.149-0.002 0.263-0.003 0.342-0.002v0c0.33 0.006 0.623-0.004 0.878-0.03 0.262-0.028 0.558 0.004 0.89 0.095v0c0 0 0.132-0.011 0.396-0.032 0.26-0.013 0.552-0.026 0.875-0.039 0.324-0.014 0.628-0.031 0.914-0.052 0.285-0.021 0.45-0.04 0.494-0.056v0c0.194-0.018 0.376-0.039 0.546-0.063 0.17-0.024 0.355-0.046 0.555-0.066v0c0.126 0.013 0.238 0.027 0.336 0.043 0.092 0.018 0.203 0.029 0.333 0.033v0c0.272-0.017 0.601-0.057 0.986-0.121 0.387-0.057 0.702-0.064 0.946-0.021v0c0.181 0.008 0.356 0.089 0.525 0.244 0.171 0.161 0.334 0.29 0.488 0.386v0c0.098 0.423 0.225 0.714 0.381 0.873 0.162 0.157 0.342 0.305 0.541 0.442v0c0.012 0.117 0.021 0.232 0.025 0.345 0.004 0.113 0.026 0.227 0.066 0.341v0c-0.325 0.6-0.707 1.069-1.145 1.408-0.436 0.346-0.874 0.685-1.314 1.018v0c-0.223 0.157-0.445 0.309-0.664 0.458-0.211 0.152-0.415 0.313-0.613 0.482v0c-0.055 0.048-0.116 0.108-0.182 0.182-0.061 0.071-0.128 0.145-0.202 0.221v0c-0.144 0.179-0.305 0.342-0.481 0.49-0.174 0.154-0.352 0.298-0.533 0.433v0c-0.104 0.193-0.252 0.36-0.447 0.499-0.192 0.146-0.386 0.285-0.581 0.419-0.19 0.131-0.372 0.263-0.547 0.395-0.166 0.137-0.293 0.295-0.379 0.476v0c-0.232 0.131-0.449 0.297-0.651 0.495-0.195 0.197-0.422 0.366-0.679 0.506v0c-0.131 0.196-0.419 0.475-0.863 0.839-0.446 0.356-0.929 0.729-1.45 1.118-0.529 0.385-1.036 0.752-1.52 1.101-0.485 0.348-0.83 0.595-1.037 0.739v0c-0.162 0.107-0.359 0.279-0.59 0.517-0.239 0.234-0.45 0.447-0.632 0.64v0c-0.217 0.176-0.444 0.363-0.682 0.56-0.238 0.198-0.468 0.375-0.692 0.532v0c-0.232 0.131-0.45 0.265-0.652 0.4-0.209 0.137-0.426 0.282-0.652 0.432v0c-0.143 0.1-0.259 0.219-0.346 0.357-0.096 0.134-0.225 0.254-0.387 0.361v0c-0.153 0.154-0.304 0.274-0.452 0.362-0.139 0.092-0.282 0.224-0.428 0.396v0c-0.255 0.068-0.409 0.136-0.464 0.206-0.048 0.067-0.112 0.139-0.192 0.217v0c-0.439 0.254-0.782 0.488-1.027 0.703-0.24 0.213-0.518 0.375-0.837 0.486v0c-0.267 0.094-0.453 0.102-0.559 0.025-0.106-0.077-0.263-0.169-0.471-0.274v0c-0.221-0.122-0.402-0.23-0.542-0.324-0.131-0.09-0.241-0.258-0.327-0.507v0c-0.07-0.282-0.167-0.434-0.289-0.456-0.122-0.022-0.208-0.034-0.259-0.037v0c-0.077-0.28-0.135-0.456-0.174-0.528-0.035-0.08-0.066-0.159-0.094-0.235-0.029-0.083-0.076-0.155-0.14-0.218-0.061-0.071-0.164-0.132-0.31-0.181v0c0.129-0.224 0.24-0.434 0.335-0.632 0.095-0.198 0.211-0.385 0.35-0.561v0c0.388-0.136 0.821-0.345 1.3-0.628 0.486-0.285 0.856-0.532 1.111-0.743v0c0.511-0.436 1.013-0.848 1.505-1.234 0.499-0.389 1.012-0.78 1.539-1.172v0c0.226-0.151 0.426-0.303 0.6-0.457 0.177-0.148 0.361-0.305 0.552-0.472v0c-0.162 0.107-0.341 0.188-0.537 0.242-0.202 0.056-0.411 0.059-0.629 0.007v0c-0.06-0.029-0.141-0.076-0.242-0.14-0.095-0.067-0.168-0.091-0.219-0.074v0c-0.318-0.195-0.615-0.359-0.889-0.491v0c-0.398 0.168-0.701 0.21-0.909 0.126-0.206-0.078-0.403-0.173-0.593-0.285v0c-0.159-0.373-0.219-0.616-0.181-0.729 0.036-0.12 0.038-0.259 0.003-0.419v0c-0.008-0.104-0.034-0.199-0.078-0.283-0.044-0.085-0.082-0.171-0.112-0.26v0c-0.065-0.184-0.08-0.372-0.047-0.562v0c0.029-0.081 0.058-0.149 0.089-0.203 0.033-0.047 0.064-0.101 0.094-0.161v0c0.116-0.24 0.195-0.504 0.237-0.79 0.038-0.278 0.065-0.548 0.08-0.81v0c0.09-0.232 0.188-0.473 0.292-0.724 0.105-0.251 0.179-0.498 0.222-0.742v0c-0.497-0.033-0.925-0.043-1.286-0.031-0.366 0.014-0.732 0.01-1.096-0.012v0c-0.856 0.022-1.598 0.054-2.226 0.096-0.634 0.044-1.28 0.067-1.936 0.068v0c-0.057-0.08-0.121-0.15-0.192-0.211-0.073-0.067-0.13-0.158-0.171-0.272zM13.309 180.342l0.051 0.143c0.374 0.069 0.606 0.17 0.695 0.303 0.083 0.135 0.211 0.236 0.385 0.304v0c0.06 0.029 0.135 0.06 0.225 0.092 0.09 0.033 0.179 0.073 0.267 0.121v0c0.067 0.048 0.141 0.108 0.223 0.178 0.078 0.08 0.16 0.14 0.246 0.182v0c0.224 0.129 0.414 0.233 0.571 0.314 0.159 0.087 0.282 0.255 0.369 0.502v0c0.134 0.381 0.146 0.731 0.035 1.048-0.104 0.315-0.124 0.665-0.06 1.049v0c-0.124 0.094-0.172 0.274-0.142 0.543 0.038 0.272 0.033 0.492-0.015 0.659v0c0.486-0.427 0.997-0.803 1.532-1.127 0.528-0.328 1.043-0.68 1.547-1.056v0c0.447-0.314 0.884-0.646 1.311-0.996 0.421-0.347 0.825-0.693 1.211-1.035v0c0.396-0.317 0.791-0.606 1.186-0.865 0.386-0.264 0.75-0.559 1.092-0.887v0c-0.469-0.035-1.028-0.039-1.675-0.012-0.656 0.023-1.225 0.069-1.708 0.138v0c-0.203 0.071-0.364 0.113-0.481 0.126v0c-0.175 0.011-0.333 0.017-0.476 0.017-0.136-0.002-0.282-0.001-0.438 0.004v0c-0.98 0.015-1.964 0.06-2.951 0.135-0.985 0.081-1.985 0.121-3 0.12z" fill="#130912" data-fill-palette-color="secondary"></path><path d="M52.332 246.562v0c-0.265 0.241-0.394 0.49-0.387 0.747 0.002 0.253-0.043 0.516-0.135 0.79v0c-0.261 0.207-0.415 0.424-0.461 0.649v0c-0.151 0.052-0.316 0.118-0.495 0.2-0.169 0.081-0.349 0.115-0.54 0.101v0c-0.39-0.137-0.653-0.187-0.791-0.15-0.137 0.037-0.284-0.018-0.441-0.166v0c-0.162 0.005-0.343 0.005-0.543 0.001-0.191-0.004-0.372-0.004-0.543 0.001v0c-0.056-0.118-0.075-0.22-0.059-0.306 0.012-0.081 0.025-0.199 0.04-0.352v0c-0.125-0.221-0.196-0.459-0.213-0.716-0.012-0.262 0.007-0.527 0.057-0.795 0.05-0.259 0.114-0.527 0.192-0.806 0.078-0.269 0.157-0.514 0.236-0.736v0c0.181-0.682 0.364-1.376 0.55-2.081 0.185-0.696 0.361-1.392 0.528-2.088v0c0.071-0.359 0.154-0.717 0.249-1.072 0.09-0.36 0.182-0.727 0.276-1.102v0c-0.007-0.071-0.006-0.145 0.001-0.222 0.007-0.076 0.017-0.155 0.029-0.236v0c0.044-0.292 0.139-0.573 0.284-0.845 0.145-0.28 0.186-0.58 0.125-0.897v0c-0.296-0.344-0.638-0.58-1.028-0.708-0.394-0.122-0.796-0.178-1.205-0.166v0c-0.092 0.136-0.188 0.258-0.29 0.365-0.097 0.103-0.194 0.206-0.292 0.309v0c-0.38 0.401-0.763 0.767-1.149 1.097-0.377 0.33-0.755 0.696-1.135 1.097v0c-0.167 0.176-0.326 0.364-0.477 0.564-0.157 0.195-0.299 0.399-0.426 0.612v0c-0.234 0.14-0.458 0.323-0.671 0.548v0c-0.116 0.122-0.21 0.247-0.283 0.373-0.068 0.131-0.16 0.257-0.275 0.379v0c-0.167 0.176-0.337 0.238-0.51 0.186-0.173-0.043-0.314 0.033-0.423 0.226v0c-0.289-0.116-0.571-0.22-0.845-0.312-0.274-0.092-0.533-0.221-0.775-0.386v0c-0.107-0.064-0.197-0.14-0.271-0.228-0.079-0.093-0.169-0.155-0.27-0.186v0c-0.121-0.049-0.254-0.05-0.401-0.003-0.137 0.047-0.249 0.028-0.337-0.055v0c-0.108-0.102-0.132-0.199-0.073-0.291 0.054-0.097 0.08-0.193 0.078-0.288v0c-0.056-0.118-0.111-0.202-0.164-0.253-0.049-0.046-0.075-0.122-0.078-0.226v0c0.163-0.143 0.24-0.293 0.231-0.45-0.014-0.162 0.095-0.365 0.326-0.61v0c0.181-0.191 0.364-0.36 0.55-0.508 0.196-0.148 0.384-0.318 0.565-0.509v0c0.148-0.157 0.263-0.322 0.344-0.496 0.076-0.169 0.171-0.348 0.285-0.537v0c0.045-0.087 0.112-0.158 0.201-0.213 0.08-0.055 0.152-0.116 0.217-0.185v0c0.296-0.313 0.585-0.643 0.866-0.989 0.276-0.341 0.563-0.669 0.859-0.982v0c0.116-0.122 0.225-0.237 0.326-0.345 0.097-0.103 0.202-0.199 0.314-0.288v0c0.131-0.07 0.247-0.128 0.345-0.174 0.089-0.045 0.183-0.119 0.28-0.222v0c0.315-0.333 0.588-0.691 0.821-1.074 0.237-0.388 0.504-0.739 0.8-1.052v0c0.167-0.176 0.338-0.353 0.514-0.529 0.181-0.172 0.355-0.346 0.522-0.522v0c0.477-0.504 0.937-1.006 1.38-1.505 0.443-0.508 0.894-1.004 1.353-1.489v0c0.329-0.348 0.665-0.683 1.008-1.007 0.334-0.324 0.666-0.66 0.994-1.008v0c0.412-0.436 0.802-0.883 1.171-1.341 0.368-0.458 0.766-0.913 1.192-1.363v0c0.148-0.157 0.238-0.271 0.269-0.343 0.032-0.063 0.035-0.115 0.01-0.158-0.025-0.042-0.055-0.089-0.09-0.14-0.039-0.047-0.051-0.113-0.034-0.199v0c0.097-0.103 0.208-0.137 0.333-0.103 0.13 0.039 0.31-0.063 0.542-0.308v0c0.13-0.137 0.249-0.288 0.359-0.453 0.105-0.16 0.225-0.311 0.359-0.454v0c0.194-0.206 0.433-0.374 0.715-0.506 0.287-0.127 0.555-0.254 0.805-0.38v0c0.224 0.184 0.369 0.321 0.433 0.41 0.06 0.094 0.15 0.165 0.27 0.214v0c-0.132 0.237-0.114 0.444 0.053 0.621 0.167 0.167 0.303 0.337 0.408 0.51v0c0.143 0.163 0.258 0.345 0.344 0.548 0.091 0.198 0.208 0.364 0.35 0.498v0c-0.063 0.135-0.059 0.278 0.012 0.429 0.071 0.151 0.151 0.301 0.241 0.45v0c0.151 0.115 0.317 0.156 0.497 0.122 0.176-0.029 0.334 0.024 0.476 0.159v0c0.103 0.097 0.153 0.284 0.152 0.56 0.003 0.281-0.003 0.498-0.018 0.651v0c0.018 0.119 0.041 0.354 0.07 0.706 0.024 0.357 0.063 0.732 0.117 1.126 0.059 0.399 0.105 0.772 0.139 1.119 0.034 0.347 0.066 0.553 0.096 0.619v0c0.043 1.386 0.098 2.662 0.164 3.828 0.066 1.166 0.244 2.331 0.534 3.495v0c-0.036 0.068-0.058 0.13-0.066 0.188-0.003 0.062-0.013 0.136-0.03 0.222v0c-0.13 0.137-0.254 0.214-0.372 0.232-0.114 0.022-0.222 0.087-0.324 0.195v0c-0.046 0.049-0.083 0.112-0.109 0.189-0.026 0.077-0.063 0.14-0.109 0.189v0c-0.05 0.092-0.107 0.163-0.173 0.212-0.07 0.054-0.137 0.116-0.202 0.185v0c-0.162 0.171-0.254 0.381-0.276 0.629-0.017 0.244-0.109 0.453-0.275 0.63v0c-0.182 0.124-0.341 0.155-0.476 0.092-0.135-0.063-0.263-0.105-0.383-0.125v0c-0.071 0.007-0.142 0.023-0.213 0.049-0.075 0.031-0.146 0.047-0.213 0.048v0c-0.549-0.194-0.981-0.297-1.296-0.307-0.315-0.02-0.633-0.051-0.953-0.094v0c-0.081-0.012-0.22-0.037-0.417-0.075-0.196-0.037-0.393-0.075-0.589-0.112-0.196-0.037-0.383-0.056-0.559-0.056-0.181-0.004-0.297 0.02-0.349 0.074v0c-0.111 0.117-0.197 0.356-0.258 0.715-0.052 0.359-0.101 0.632-0.149 0.82v0c-0.105 0.494-0.223 0.967-0.354 1.418-0.13 0.452-0.241 0.917-0.332 1.396v0c-0.162 0.867-0.355 1.723-0.579 2.569-0.22 0.84-0.444 1.681-0.673 2.521zM57.26 232.833v0c0.075-0.884 0.075-1.747-0.001-2.588-0.071-0.846-0.105-1.694-0.1-2.542v0l-0.237-0.322c0.064-0.273 0.09-0.536 0.078-0.789-0.002-0.253-0.01-0.514-0.022-0.786v0c-0.161 0.209-0.322 0.4-0.485 0.571-0.167 0.176-0.34 0.36-0.52 0.551v0c-0.528 0.558-1.056 1.088-1.586 1.589-0.524 0.506-1.041 1.028-1.551 1.566v0c-0.514 0.543-0.973 1.083-1.377 1.618v0c0.362 0.343 0.792 0.55 1.29 0.622v0c0.201 0.033 0.399 0.048 0.595 0.048 0.191 0.004 0.389 0.02 0.594 0.047v0c0.225 0.046 0.486 0.094 0.784 0.143 0.297 0.049 0.594 0.098 0.89 0.147 0.297 0.058 0.589 0.098 0.876 0.118 0.291 0.025 0.549 0.028 0.772 0.007z" fill="#130912" data-fill-palette-color="secondary"></path><path d="M120.281 279.877v0c-0.147 0.089-0.292 0.129-0.436 0.122-0.149-0.016-0.292-0.041-0.429-0.074v0c-0.387 0.078-0.78 0.068-1.179-0.031v0c-0.221-0.2-0.347-0.28-0.378-0.239-0.037 0.039-0.095 0.074-0.172 0.104v0c-0.394 0.077-0.729 0.087-1.007 0.033-0.283-0.063-0.53-0.058-0.743 0.015v0c-0.156-0.184-0.207-0.412-0.154-0.684 0.06-0.27 0.086-0.503 0.079-0.699v0c-0.071-0.191-0.099-0.413-0.086-0.666 0.009-0.262 0.035-0.522 0.078-0.782 0.037-0.262 0.068-0.517 0.096-0.768 0.027-0.25 0.018-0.481-0.027-0.693v0c0.003-0.124 0.022-0.23 0.057-0.319 0.036-0.088 0.042-0.198 0.019-0.329v0c0.123-0.386 0.19-0.703 0.202-0.949 0.011-0.24 0.024-0.494 0.042-0.76v0c0.009-0.15 0.035-0.311 0.077-0.481 0.044-0.177 0.008-0.328-0.107-0.453v0c0.146-0.311 0.216-0.554 0.21-0.729-0.006-0.175-0.001-0.333 0.014-0.475v0c0.019-0.19 0.056-0.396 0.11-0.618 0.055-0.222 0.082-0.431 0.081-0.626v0c0.138-1.153 0.262-2.305 0.373-3.457 0.112-1.159 0.236-2.312 0.373-3.458v0c-0.171 0.076-0.315 0.224-0.432 0.445-0.109 0.216-0.213 0.413-0.312 0.59v0c-0.241 0.385-0.474 0.782-0.699 1.191-0.221 0.417-0.442 0.821-0.663 1.211v0c-0.091 0.172-0.187 0.377-0.287 0.616-0.092 0.234-0.197 0.434-0.314 0.599v0c-0.395 0.617-0.741 1.15-1.039 1.597-0.289 0.442-0.579 0.902-0.87 1.378v0c-0.113 0.263-0.225 0.517-0.333 0.761-0.115 0.242-0.227 0.485-0.336 0.73v0c-0.055 0.139-0.137 0.331-0.246 0.574-0.109 0.244-0.204 0.418-0.285 0.523v0c-0.073 0.1-0.133 0.172-0.178 0.216-0.044 0.038-0.07 0.115-0.077 0.231v0c-0.316 0.297-0.568 0.644-0.757 1.042-0.182 0.399-0.425 0.77-0.731 1.11v0c-0.069 0.281-0.234 0.501-0.496 0.659v0c-0.123-0.009-0.239-0.014-0.35-0.013-0.11-0.006-0.232 0.012-0.368 0.055v0c-0.1-0.073-0.224-0.135-0.37-0.185-0.154-0.052-0.299-0.095-0.437-0.129v0c-0.113-0.049-0.208-0.114-0.285-0.195-0.077-0.081-0.171-0.15-0.283-0.205v0c-0.084-0.166-0.182-0.319-0.293-0.457-0.112-0.139-0.222-0.284-0.33-0.435v0c-0.059-0.382-0.132-0.647-0.221-0.794v0c-0.003-0.271-0.035-0.533-0.098-0.784-0.065-0.245-0.085-0.514-0.062-0.806v0c-0.009-0.273-0.039-0.533-0.088-0.781-0.045-0.24-0.094-0.505-0.148-0.797v0c-0.007-0.168-0.021-0.338-0.041-0.509-0.022-0.165-0.049-0.335-0.082-0.51v0c0.027-0.195 0.023-0.445-0.013-0.752-0.037-0.301-0.053-0.561-0.047-0.782v0c0.006-0.026-0.006-0.158-0.038-0.395-0.024-0.242-0.047-0.501-0.069-0.776-0.016-0.274-0.04-0.527-0.073-0.758-0.027-0.229-0.05-0.359-0.07-0.392v0c-0.017-0.129-0.029-0.25-0.036-0.362-0.007-0.113-0.016-0.243-0.028-0.392v0c-0.024-0.325-0.066-0.662-0.126-1.01-0.06-0.348-0.127-0.68-0.202-0.997v0c-0.055-0.256-0.078-0.501-0.069-0.735 0.002-0.235-0.003-0.466-0.017-0.691v0c-0.018-0.122-0.035-0.238-0.05-0.346-0.01-0.1-0.024-0.214-0.041-0.343v0c-0.012-0.149-0.022-0.304-0.031-0.465-0.009-0.162-0.019-0.331-0.031-0.507v0c-0.122 0.018-0.199 0.104-0.229 0.255-0.024 0.154-0.06 0.287-0.109 0.4v0c-0.109 0.244-0.194 0.49-0.255 0.739-0.06 0.242-0.134 0.487-0.223 0.736v0c-0.115 0.27-0.227 0.527-0.336 0.771-0.109 0.244-0.207 0.49-0.296 0.739v0c-0.155 0.628-0.342 1.248-0.563 1.86v0c-0.189 0.543-0.387 1.091-0.592 1.644-0.212 0.551-0.402 1.126-0.57 1.723v0c-0.11 0.445-0.267 0.871-0.471 1.278-0.196 0.403-0.329 0.842-0.398 1.318v0c-0.07 0.087-0.111 0.153-0.121 0.199-0.011 0.046-0.028 0.114-0.051 0.206v0c-0.029 0.118-0.067 0.244-0.114 0.378-0.04 0.136-0.075 0.263-0.104 0.38v0c-0.052 0.209-0.063 0.356-0.035 0.439v0c-0.124 0.192-0.215 0.408-0.275 0.651-0.06 0.242-0.118 0.481-0.177 0.716v0c-0.068 0.08-0.12 0.165-0.156 0.253-0.036 0.088-0.098 0.174-0.187 0.256v0c-0.077 0.397-0.243 0.565-0.499 0.502v0c-0.065-0.016-0.137-0.051-0.213-0.105-0.069-0.059-0.118-0.126-0.148-0.203v0c-0.267-0.045-0.399-0.14-0.398-0.285 0.001-0.145-0.06-0.223-0.182-0.233v0c-0.31 0.048-0.476 0.046-0.498-0.008-0.021-0.054-0.093-0.085-0.216-0.095v0c-0.138-0.228-0.239-0.34-0.303-0.334-0.065 0.012-0.121 0.012-0.167 0v0c-0.192-0.124-0.305-0.169-0.341-0.136-0.028 0.028-0.078 0.033-0.149 0.015v0c-0.089-0.147-0.231-0.244-0.428-0.292-0.196-0.048-0.361-0.099-0.493-0.153v0c-0.002-0.105 0-0.198 0.006-0.28 0.006-0.082 0.024-0.181 0.053-0.299v0c0.034-0.137 0.073-0.27 0.119-0.397 0.045-0.128 0.085-0.26 0.119-0.398v0c0.029-0.118 0.052-0.24 0.07-0.368 0.019-0.134 0.049-0.283 0.089-0.446v0c0.039-0.157 0.09-0.311 0.155-0.462 0.063-0.144 0.117-0.308 0.163-0.49v0c0.018-0.072 0.021-0.141 0.009-0.206-0.013-0.059-0.008-0.137 0.016-0.236v0c0.218-0.265 0.342-0.488 0.373-0.668 0.029-0.173 0.076-0.339 0.143-0.495v0c0.142-0.381 0.278-0.761 0.405-1.139 0.128-0.378 0.266-0.757 0.415-1.136v0c0.161-0.654 0.31-1.19 0.448-1.608 0.139-0.424 0.299-0.846 0.479-1.266v0c0.097-0.198 0.186-0.388 0.265-0.57 0.084-0.174 0.175-0.359 0.273-0.557v0c0.133-0.342 0.253-0.701 0.359-1.077 0.102-0.384 0.225-0.757 0.368-1.117v0c0.188-0.564 0.384-1.123 0.59-1.676 0.212-0.551 0.41-1.103 0.595-1.654v0c0.154-0.427 0.313-0.849 0.479-1.267 0.165-0.417 0.296-0.822 0.392-1.215v0c0.052-0.209 0.147-0.47 0.287-0.782 0.139-0.313 0.247-0.581 0.323-0.806v0c0.183-0.545 0.36-1.081 0.531-1.607 0.165-0.528 0.313-1.058 0.443-1.587v0l0.097-0.393c0.011-0.046 0.045-0.086 0.103-0.12 0.057-0.035 0.1-0.111 0.129-0.229v0c0.052-0.209 0.139-0.34 0.263-0.393 0.124-0.053 0.245-0.165 0.364-0.337v0c0.118 0.029 0.249 0.075 0.393 0.138 0.146 0.057 0.237 0.152 0.273 0.286v0c0.175-0.006 0.344 0.012 0.508 0.052 0.164 0.04 0.319 0.016 0.465-0.072v0c0.137 0.034 0.233 0.096 0.288 0.185 0.049 0.082 0.126 0.163 0.231 0.244v0c0.104-0.03 0.21-0.049 0.316-0.057 0.1-0.01 0.201-0.027 0.304-0.05v0c0.061 0.064 0.1 0.129 0.118 0.195 0.018 0.067 0.061 0.119 0.128 0.157v0c0.369-0.006 0.604 0.041 0.704 0.142v0c0.023 0.103 0.03 0.202 0.021 0.297-0.009 0.095-0.016 0.19-0.019 0.286v0c0.177 0.294 0.264 0.592 0.258 0.897-0.001 0.312 0.066 0.606 0.199 0.881v0c0.01 0.155 0.028 0.309 0.053 0.461 0.018 0.15 0.031 0.327 0.036 0.529v0l-0.003 0.437c0.034 0.258 0.082 0.568 0.145 0.931v0c0.003 0.466-0.003 0.943-0.019 1.431-0.023 0.487 0.021 0.956 0.132 1.407v0c-0.014 0.142-0.016 0.319-0.005 0.529 0.011 0.211 0.021 0.394 0.031 0.549v0c0.067 0.433 0.141 0.864 0.222 1.294 0.077 0.421 0.132 0.872 0.167 1.352v0c0.029 0.472 0.039 0.953 0.029 1.444-0.01 0.49 0.012 0.978 0.067 1.463v0c0.034 0.453 0.065 0.779 0.091 0.98 0.025 0.207 0.071 0.416 0.137 0.627v0c-0.018 0.072-0.026 0.191-0.025 0.358-0.008 0.172 0.003 0.355 0.031 0.549 0.022 0.193 0.05 0.373 0.085 0.542 0.035 0.168 0.083 0.27 0.143 0.306v0c0.083-0.028 0.143-0.086 0.179-0.175 0.029-0.09 0.088-0.162 0.178-0.216v0c0.089-0.249 0.209-0.552 0.36-0.911 0.144-0.36 0.303-0.64 0.477-0.84v0c0.029-0.118 0.112-0.326 0.248-0.626 0.136-0.3 0.294-0.618 0.475-0.955 0.18-0.337 0.35-0.646 0.509-0.926 0.153-0.282 0.274-0.45 0.363-0.504v0c0.12-0.29 0.205-0.466 0.256-0.53 0.055-0.056 0.112-0.104 0.171-0.145v0c0.065-0.178 0.153-0.34 0.265-0.487 0.112-0.146 0.201-0.308 0.266-0.486v0c0.142-0.381 0.282-0.694 0.418-0.938 0.135-0.237 0.303-0.526 0.505-0.864v0c0.179-0.303 0.349-0.615 0.511-0.936 0.161-0.314 0.34-0.621 0.539-0.919v0c0.499-0.814 0.944-1.537 1.335-2.169 0.385-0.634 0.821-1.234 1.308-1.801v0c0.124-0.192 0.214-0.305 0.271-0.339 0.057-0.035 0.114-0.069 0.171-0.104v0c0.201-0.027 0.403-0.015 0.606 0.035 0.196 0.048 0.396 0.111 0.599 0.189v0c0.253-0.042 0.452-0.104 0.597-0.186v0c0.064 0.134 0.191 0.224 0.381 0.271v0c0.229 0.056 0.409 0.028 0.541-0.085v0c0.08 0.068 0.152 0.1 0.216 0.095 0.059-0.013 0.141 0.017 0.248 0.092v0c0.057-0.035 0.129-0.072 0.216-0.114 0.086-0.041 0.162-0.054 0.227-0.037v0c0.132 0.282 0.235 0.498 0.309 0.648 0.072 0.157 0.111 0.322 0.117 0.498v0c0.014 0.225-0.002 0.461-0.049 0.706-0.047 0.245-0.037 0.487 0.029 0.725v0c-0.1 0.294-0.198 0.76-0.291 1.396-0.093 0.629-0.184 1.297-0.275 2.004-0.083 0.701-0.15 1.354-0.202 1.959-0.052 0.605-0.059 0.985-0.02 1.14v0c-0.1 0.294-0.15 0.553-0.15 0.775-0.006 0.221-0.034 0.436-0.086 0.645v0c-0.018 0.072-0.044 0.222-0.079 0.449-0.029 0.229-0.063 0.467-0.103 0.713-0.033 0.249-0.061 0.488-0.083 0.719-0.022 0.23-0.031 0.395-0.028 0.493v0c-0.103 0.419-0.114 0.759-0.033 1.022v0c-0.026 0.611-0.068 1.218-0.126 1.821-0.065 0.602-0.136 1.212-0.212 1.832v0c-0.028 0.312-0.071 0.611-0.127 0.895-0.063 0.283-0.108 0.581-0.137 0.893v0c-0.003 0.124-0.002 0.246 0.004 0.365 0.01 0.127 0.011 0.252 0.001 0.375v0c-0.011 0.24-0.029 0.468-0.054 0.684-0.032 0.214-0.051 0.432-0.056 0.653v0c-0.003 0.124 0.003 0.257 0.016 0.399 0.015 0.136-0.017 0.266-0.097 0.393v0c0.006 0.175-0.022 0.355-0.081 0.542-0.052 0.182-0.049 0.352 0.009 0.512v0c-0.121 0.491-0.191 0.931-0.211 1.322v0c-0.05 0.286-0.049 0.581 0 0.885v0c-0.024 0.293-0.056 0.593-0.097 0.902-0.035 0.311-0.066 0.622-0.095 0.934z" fill="#130912" data-fill-palette-color="secondary"></path><path d="M185.701 258.532v0c-0.018 0.104-0.038 0.201-0.06 0.292-0.02 0.097-0.026 0.194-0.018 0.29v0c0.117 0.063 0.23 0.135 0.338 0.215 0.115 0.078 0.19 0.175 0.225 0.292v0c0.027 0.09 0.034 0.183 0.02 0.279-0.009 0.087 0.01 0.162 0.057 0.225v0c-0.05 0.184-0.106 0.362-0.167 0.535-0.063 0.166-0.092 0.337-0.089 0.513v0c-0.063 0.117-0.11 0.23-0.142 0.337-0.029 0.114-0.053 0.223-0.071 0.327v0c-0.103 0.08-0.155 0.176-0.156 0.29-0.001 0.113-0.037 0.218-0.105 0.316v0c0.001 0.098-0.05 0.349-0.155 0.753-0.104 0.404-0.223 0.84-0.356 1.31-0.136 0.463-0.265 0.913-0.387 1.35-0.116 0.436-0.201 0.725-0.257 0.868v0c-0.012 0.123-0.037 0.229-0.074 0.318-0.037 0.088-0.077 0.188-0.121 0.3v0c-0.024 0.085-0.037 0.169-0.04 0.254 0.004 0.083-0.01 0.154-0.042 0.213v0c-0.016 0.11-0.044 0.206-0.082 0.289-0.037 0.088-0.06 0.197-0.071 0.327v0c-0.143 0.366-0.266 0.79-0.368 1.271-0.109 0.483-0.218 0.916-0.328 1.301v0c-0.056 0.214-0.108 0.426-0.157 0.638-0.047 0.218-0.102 0.435-0.164 0.65v0c-0.06 0.222-0.124 0.431-0.192 0.627-0.063 0.188-0.125 0.393-0.186 0.615v0c-0.147 0.192-0.259 0.405-0.336 0.639-0.076 0.241-0.187 0.457-0.333 0.648v0c-0.297 0.089-0.522 0.005-0.677-0.251v0c-0.316 0.024-0.465 0.069-0.445 0.133 0.021 0.071 0.039 0.129 0.052 0.175v0c-0.077 0.072-0.118 0.158-0.123 0.258-0.01 0.108-0.053 0.199-0.13 0.271v0c-0.194 0.009-0.371-0.019-0.531-0.084-0.154-0.067-0.344-0.055-0.57 0.034v0c-0.131-0.108-0.27-0.197-0.417-0.265-0.147-0.068-0.283-0.147-0.409-0.237v0c-0.086-0.122-0.181-0.217-0.285-0.284-0.113-0.072-0.215-0.143-0.307-0.214v0c-0.106-0.095-0.208-0.177-0.306-0.246-0.092-0.071-0.186-0.141-0.284-0.21v0c-0.223-0.158-0.438-0.312-0.645-0.461-0.208-0.156-0.402-0.319-0.579-0.491v0c-0.262-0.217-0.523-0.445-0.785-0.683-0.259-0.232-0.521-0.459-0.785-0.683v0c-0.131-0.108-0.262-0.217-0.393-0.325-0.139-0.113-0.262-0.228-0.366-0.344v0c-0.08-0.103-0.186-0.222-0.319-0.358-0.124-0.132-0.252-0.206-0.383-0.223v0c-0.099-0.167-0.221-0.279-0.364-0.334-0.143-0.056-0.291-0.138-0.443-0.247v0c-0.215-0.132-0.427-0.287-0.635-0.464-0.201-0.179-0.404-0.361-0.607-0.547v0c-0.652-0.508-1.27-1.012-1.855-1.512-0.59-0.491-1.18-1.015-1.768-1.57v0c0.008-0.396-0.016-0.688-0.072-0.875-0.054-0.181-0.04-0.347 0.04-0.498v0c-0.027-0.09-0.046-0.236-0.056-0.436v0c0.146-0.592 0.293-1.136 0.44-1.63v0c0.142-0.465 0.227-0.838 0.255-1.121 0.021-0.281 0.049-0.577 0.082-0.89v0c0.095-0.106 0.162-0.221 0.202-0.345 0.036-0.116 0.097-0.24 0.184-0.372v0c-0.03-0.265 0.01-0.506 0.122-0.722 0.109-0.223 0.149-0.467 0.118-0.732v0c0.158-0.223 0.219-0.442 0.183-0.656v0c0.235-0.295 0.334-0.624 0.296-0.985v0c0.131-0.243 0.224-0.496 0.279-0.759 0.06-0.271 0.11-0.55 0.151-0.836v0c0.203-0.307 0.331-0.669 0.382-1.085v0c0.108-0.131 0.174-0.288 0.196-0.471 0.023-0.183 0.075-0.349 0.157-0.5v0c0.092-0.351 0.16-0.639 0.205-0.863 0.045-0.225 0.095-0.458 0.15-0.699v0c0.161-0.048 0.247-0.137 0.257-0.267 0.01-0.13 0.087-0.202 0.231-0.217v0c-0.062-0.207-0.059-0.408 0.009-0.604v0c0.037-0.039 0.097-0.089 0.177-0.148 0.081-0.059 0.113-0.115 0.098-0.167v0c-0.126-0.258-0.161-0.42-0.103-0.486 0.057-0.066 0.101-0.132 0.13-0.197v0c0.267-0.024 0.449-0.039 0.545-0.047 0.098-0.001 0.271 0.035 0.518 0.109v0c0.232-0.07 0.407-0.073 0.525-0.01 0.117 0.063 0.242 0.103 0.373 0.12v0c0.117 0.063 0.219 0.131 0.304 0.205 0.085 0.073 0.193 0.115 0.323 0.125v0c0.256 0.198 0.533 0.417 0.83 0.659 0.295 0.235 0.571 0.451 0.827 0.649v0c0.361 0.265 0.716 0.513 1.068 0.745 0.357 0.231 0.707 0.495 1.05 0.794v0c0.099 0.097 0.285 0.259 0.557 0.487 0.266 0.23 0.563 0.471 0.892 0.724 0.323 0.255 0.617 0.487 0.884 0.696 0.26 0.211 0.432 0.328 0.516 0.352v0c0.097 0.09 0.311 0.262 0.64 0.515 0.323 0.255 0.669 0.52 1.04 0.796 0.371 0.276 0.731 0.537 1.079 0.785 0.348 0.247 0.584 0.402 0.709 0.463v0c0.354 0.267 0.625 0.491 0.813 0.674 0.195 0.181 0.385 0.381 0.57 0.6zM179.767 267.356v0c0.147-0.424 0.248-0.792 0.302-1.103 0.059-0.32 0.115-0.639 0.167-0.958v0c0.151-0.341 0.232-0.576 0.243-0.705 0.01-0.13 0.03-0.262 0.06-0.398v0c0.106-0.327 0.214-0.658 0.325-0.994 0.112-0.329 0.178-0.672 0.198-1.03v0c0.108-0.131 0.177-0.278 0.205-0.441 0.03-0.157 0.096-0.314 0.197-0.471v0c-0.279-0.437-0.551-0.76-0.818-0.968-0.26-0.211-0.521-0.414-0.784-0.609v0c-0.099-0.097-0.202-0.193-0.307-0.288-0.104-0.088-0.205-0.181-0.305-0.278v0c-0.118-0.042-0.214-0.091-0.286-0.146-0.077-0.047-0.162-0.096-0.255-0.146v0c-0.08-0.103-0.192-0.231-0.337-0.384v0c-0.125-0.089-0.25-0.164-0.373-0.226-0.117-0.063-0.233-0.155-0.347-0.276v0c-0.117-0.063-0.268-0.155-0.452-0.276-0.184-0.121-0.379-0.256-0.585-0.405-0.213-0.147-0.4-0.292-0.562-0.433-0.166-0.133-0.303-0.247-0.409-0.342v0c-0.08-0.103-0.148-0.188-0.203-0.255-0.064-0.072-0.132-0.147-0.204-0.224v0c-0.158-0.129-0.314-0.237-0.466-0.325-0.155-0.094-0.315-0.205-0.479-0.331v0c-0.051 0.065-0.104 0.112-0.158 0.142-0.054 0.03-0.097 0.075-0.129 0.134v0c-0.072 0.345-0.168 0.673-0.286 0.982-0.118 0.31-0.226 0.644-0.322 1.004v0c-0.08 0.319-0.157 0.649-0.232 0.987-0.07 0.33-0.144 0.659-0.222 0.984v0c-0.068 0.196-0.131 0.384-0.19 0.564-0.059 0.179-0.119 0.377-0.181 0.592v0c-0.068 0.196-0.114 0.393-0.14 0.591-0.027 0.191-0.075 0.385-0.143 0.58v0c-0.118 0.288-0.204 0.539-0.259 0.753-0.06 0.222-0.111 0.476-0.152 0.763v0c0.112 0.114 0.277 0.269 0.498 0.463 0.222 0.201 0.449 0.396 0.682 0.587 0.233 0.191 0.442 0.371 0.626 0.54 0.191 0.168 0.307 0.284 0.347 0.35v0c0.235 0.105 0.437 0.238 0.605 0.399 0.174 0.159 0.382 0.301 0.623 0.426v0c0.146 0.16 0.298 0.291 0.455 0.391 0.152 0.109 0.31 0.224 0.472 0.344v0c0.165 0.127 0.384 0.318 0.657 0.573 0.28 0.254 0.559 0.515 0.836 0.784 0.284 0.267 0.557 0.508 0.819 0.725 0.264 0.223 0.464 0.353 0.602 0.39v0c0.157-0.321 0.263-0.659 0.319-1.014 0.056-0.354 0.172-0.695 0.348-1.022z" fill="#130912" data-fill-palette-color="secondary"></path><path d="M242.866 232.035v0c0.229 0.276 0.472 0.416 0.728 0.42 0.252 0.009 0.513 0.066 0.784 0.171v0c0.195 0.27 0.405 0.434 0.627 0.49v0c0.045 0.153 0.104 0.321 0.177 0.503 0.073 0.173 0.099 0.354 0.077 0.545v0c-0.154 0.383-0.216 0.644-0.186 0.783 0.031 0.139-0.031 0.283-0.186 0.433v0c-0.003 0.162-0.011 0.343-0.024 0.542-0.013 0.19-0.021 0.371-0.024 0.543v0c-0.12 0.05-0.223 0.065-0.308 0.045-0.081-0.016-0.197-0.034-0.349-0.056v0c-0.226 0.115-0.468 0.175-0.725 0.18-0.262 0-0.526-0.031-0.792-0.093-0.256-0.062-0.522-0.138-0.796-0.228-0.265-0.09-0.507-0.18-0.725-0.27v0c-0.673-0.212-1.358-0.426-2.054-0.643-0.687-0.217-1.374-0.424-2.062-0.623v0c-0.356-0.087-0.709-0.186-1.06-0.297-0.356-0.106-0.718-0.215-1.088-0.326v0c-0.072 0.004-0.145 0-0.221-0.011-0.076-0.011-0.154-0.024-0.235-0.04v0c-0.29-0.057-0.567-0.165-0.831-0.322-0.274-0.157-0.57-0.212-0.89-0.166v0c-0.357 0.28-0.609 0.611-0.754 0.995-0.14 0.388-0.214 0.787-0.221 1.197v0c0.132 0.098 0.249 0.2 0.352 0.306 0.098 0.102 0.197 0.204 0.295 0.306v0c0.384 0.397 0.732 0.797 1.044 1.197 0.312 0.391 0.66 0.786 1.044 1.183v0c0.168 0.174 0.349 0.342 0.542 0.503 0.188 0.165 0.385 0.316 0.592 0.454v0c0.129 0.241 0.301 0.472 0.517 0.695v0c0.117 0.121 0.237 0.221 0.359 0.299 0.127 0.074 0.25 0.171 0.367 0.292v0c0.168 0.174 0.223 0.347 0.162 0.518-0.051 0.171 0.018 0.315 0.207 0.432v0c-0.129 0.284-0.246 0.56-0.35 0.831-0.105 0.27-0.245 0.522-0.421 0.757v0c-0.069 0.104-0.149 0.19-0.24 0.26-0.097 0.075-0.162 0.162-0.198 0.261v0c-0.054 0.118-0.062 0.251-0.021 0.4 0.04 0.139 0.017 0.25-0.07 0.335v0c-0.107 0.103-0.205 0.123-0.294 0.059-0.094-0.059-0.189-0.089-0.285-0.091v0c-0.12 0.05-0.207 0.101-0.26 0.153-0.048 0.047-0.125 0.069-0.23 0.067v0c-0.135-0.169-0.281-0.253-0.438-0.25-0.162 0.007-0.36-0.111-0.595-0.354v0c-0.183-0.189-0.344-0.38-0.483-0.573-0.139-0.203-0.3-0.398-0.483-0.587v0c-0.15-0.155-0.31-0.277-0.479-0.366-0.165-0.084-0.34-0.187-0.524-0.309v0c-0.085-0.049-0.153-0.119-0.203-0.211-0.051-0.082-0.109-0.157-0.175-0.225v0c-0.3-0.31-0.616-0.614-0.949-0.91-0.328-0.292-0.642-0.593-0.942-0.903v0c-0.117-0.121-0.227-0.235-0.33-0.341-0.098-0.102-0.189-0.211-0.273-0.327v0c-0.064-0.135-0.117-0.252-0.158-0.353-0.041-0.091-0.111-0.188-0.21-0.289v0c-0.318-0.33-0.663-0.619-1.035-0.869-0.377-0.254-0.715-0.537-1.015-0.847v0c-0.168-0.174-0.337-0.354-0.505-0.538-0.163-0.189-0.329-0.37-0.498-0.544v0c-0.482-0.499-0.962-0.982-1.44-1.448-0.487-0.466-0.963-0.939-1.426-1.419v0c-0.332-0.344-0.653-0.695-0.961-1.053-0.308-0.348-0.629-0.695-0.961-1.039v0c-0.417-0.431-0.845-0.842-1.286-1.23-0.441-0.389-0.877-0.806-1.308-1.253v0c-0.15-0.155-0.26-0.25-0.331-0.284-0.061-0.034-0.114-0.04-0.157-0.017-0.043 0.023-0.091 0.051-0.144 0.083-0.048 0.037-0.115 0.046-0.2 0.025v0c-0.098-0.102-0.127-0.214-0.087-0.337 0.045-0.128-0.049-0.313-0.284-0.556v0c-0.131-0.136-0.277-0.262-0.436-0.379-0.155-0.112-0.301-0.239-0.437-0.379v0c-0.197-0.204-0.354-0.449-0.473-0.738-0.114-0.293-0.228-0.566-0.343-0.82v0c0.194-0.216 0.337-0.354 0.429-0.415 0.096-0.056 0.172-0.142 0.226-0.26v0c0.231 0.142 0.438 0.134 0.622-0.025 0.174-0.159 0.35-0.287 0.529-0.384v0c0.169-0.135 0.357-0.242 0.563-0.319 0.202-0.082 0.373-0.191 0.513-0.327v0c0.132 0.069 0.275 0.072 0.429 0.008 0.154-0.064 0.307-0.138 0.461-0.221v0c0.122-0.146 0.17-0.309 0.145-0.49-0.021-0.177 0.039-0.333 0.179-0.469v0c0.102-0.098 0.291-0.14 0.567-0.126 0.281 0.01 0.497 0.025 0.65 0.047v0c0.119-0.012 0.355-0.025 0.708-0.038 0.358-0.008 0.734-0.03 1.13-0.065 0.401-0.041 0.776-0.07 1.124-0.088 0.348-0.018 0.556-0.04 0.623-0.068v0c1.386 0.019 2.663 0.023 3.831 0.01 1.168-0.013 2.34-0.138 3.516-0.374v0c0.066 0.039 0.128 0.064 0.185 0.074 0.062 0.006 0.135 0.019 0.22 0.04v0c0.131 0.136 0.203 0.263 0.215 0.383 0.017 0.115 0.077 0.225 0.18 0.331v0c0.047 0.048 0.108 0.088 0.184 0.118 0.076 0.03 0.137 0.069 0.184 0.118v0c0.09 0.054 0.158 0.115 0.204 0.182 0.051 0.072 0.109 0.142 0.175 0.21v0c0.164 0.17 0.369 0.271 0.617 0.304 0.243 0.028 0.448 0.129 0.616 0.304v0c0.116 0.188 0.139 0.348 0.07 0.48-0.069 0.132-0.116 0.258-0.142 0.376v0c0.004 0.072 0.017 0.143 0.039 0.215 0.027 0.077 0.04 0.148 0.039 0.216v0c-0.219 0.539-0.341 0.966-0.365 1.28-0.034 0.314-0.08 0.63-0.138 0.948v0c-0.016 0.081-0.047 0.218-0.093 0.413-0.046 0.195-0.093 0.389-0.139 0.583-0.046 0.195-0.073 0.38-0.082 0.557-0.013 0.181 0.007 0.298 0.059 0.351v0c0.112 0.116 0.346 0.213 0.702 0.291 0.356 0.068 0.627 0.13 0.812 0.186v0c0.489 0.128 0.955 0.267 1.4 0.417 0.445 0.151 0.905 0.283 1.38 0.396v0c0.859 0.201 1.705 0.432 2.54 0.695 0.829 0.258 1.659 0.52 2.488 0.787zM229.375 226.488v0c-0.88-0.115-1.741-0.154-2.585-0.117-0.849 0.033-1.697 0.027-2.544-0.016v0l-0.333 0.223c-0.27-0.076-0.532-0.114-0.784-0.113-0.252-0.009-0.514-0.014-0.786-0.014v0c0.202 0.17 0.385 0.34 0.548 0.51 0.168 0.174 0.344 0.356 0.527 0.545v0c0.534 0.553 1.038 1.105 1.515 1.656 0.481 0.547 0.979 1.087 1.494 1.62v0c0.519 0.538 1.038 1.021 1.554 1.45v0c0.359-0.346 0.585-0.766 0.68-1.261v0c0.042-0.199 0.067-0.397 0.074-0.591 0.013-0.19 0.038-0.388 0.075-0.592v0c0.056-0.223 0.116-0.482 0.178-0.776 0.062-0.294 0.125-0.589 0.187-0.883 0.072-0.294 0.125-0.584 0.158-0.87 0.038-0.29 0.052-0.547 0.042-0.771z" fill="#130912" data-fill-palette-color="secondary"></path><path d="M252.717 168.079v0c0.372 0.4 0.813 0.858 1.323 1.374 0.508 0.523 0.959 0.952 1.352 1.288v0c0.139 0.117 0.272 0.228 0.4 0.335 0.128 0.106 0.26 0.221 0.397 0.344v0c0.303 0.221 0.58 0.468 0.83 0.743 0.25 0.274 0.522 0.535 0.816 0.781v0c0.387 0.355 0.777 0.718 1.173 1.09 0.395 0.372 0.809 0.74 1.242 1.103v0c0.378 0.38 0.712 0.69 1.003 0.928 0.286 0.229 0.576 0.467 0.871 0.714 0.299 0.255 0.595 0.488 0.887 0.697 0.299 0.212 0.572 0.395 0.819 0.548v0c0.297 0.325 0.515 0.589 0.654 0.791v0c0.395 0.18 0.786 0.359 1.174 0.538 0.395 0.18 0.809 0.342 1.245 0.486v0c0.205 0.068 0.408 0.117 0.611 0.148 0.205 0.025 0.412 0.062 0.623 0.111v0c0.303 0.072 0.596 0.162 0.88 0.269 0.277 0.106 0.567 0.195 0.87 0.267v0c0.576 0.169 1.148 0.326 1.717 0.472 0.567 0.152 1.152 0.314 1.756 0.485v0c0.416 0.116 0.755 0.25 1.017 0.4 0.262 0.151 0.548 0.263 0.857 0.337v0c0.022 0.085 0.029 0.169 0.023 0.252-0.002 0.092 0.009 0.177 0.033 0.256v0c-0.083 0.249-0.144 0.414-0.184 0.492-0.038 0.073-0.047 0.151-0.025 0.237v0c-0.202 0.16-0.3 0.252-0.294 0.275 0.004 0.03 0.002 0.058-0.006 0.084v0c-0.178 0.239-0.297 0.363-0.357 0.371-0.051 0.004-0.111 0.034-0.179 0.09v0c-0.083 0.249-0.115 0.466-0.097 0.649v0c-0.068 0.056-0.132 0.098-0.192 0.128-0.06 0.03-0.126 0.068-0.198 0.116v0c-0.087 0.198-0.17 0.363-0.248 0.493-0.083 0.122-0.161 0.22-0.236 0.294v0c-0.202 0.011-0.387 0.032-0.552 0.062-0.162 0.039-0.355 0.021-0.579-0.053v0c-0.186-0.061-0.351-0.141-0.496-0.238-0.145-0.098-0.303-0.189-0.474-0.274v0c-0.115-0.038-0.22-0.066-0.313-0.082-0.094-0.017-0.198-0.044-0.313-0.083v0c-0.115-0.038-0.254-0.112-0.416-0.222v0c-0.548-0.103-1.107-0.256-1.679-0.46-0.58-0.199-1.132-0.385-1.657-0.558v0c-0.518-0.171-1.022-0.288-1.513-0.352v0c-0.286-0.123-0.494-0.192-0.623-0.206-0.134-0.023-0.269-0.057-0.403-0.101v0c-0.115-0.038-0.23-0.087-0.346-0.146-0.119-0.068-0.237-0.121-0.352-0.159v0c-0.019-0.006-0.143-0.029-0.371-0.07-0.23-0.034-0.471-0.067-0.722-0.1-0.252-0.033-0.493-0.064-0.726-0.091-0.232-0.027-0.371-0.048-0.416-0.063v0c-0.486 0.095-0.93 0.14-1.332 0.134-0.401-0.012-0.749 0.011-1.045 0.07v0c-0.209 0.03-0.417 0.061-0.626 0.091-0.215 0.028-0.437 0.044-0.665 0.046v0c-0.13 0.007-0.267 0.004-0.412-0.009-0.147-0.006-0.286-0.006-0.416 0.001v0c-0.209 0.03-0.435 0.048-0.677 0.053-0.245 0.011-0.454 0.052-0.626 0.123v0c-0.234 0.022-0.451 0.043-0.649 0.062-0.2 0.026-0.377 0.014-0.53-0.037v0c-0.296-0.027-0.577-0.003-0.844 0.073-0.268 0.082-0.532 0.14-0.792 0.174v0c-0.158 0.026-0.299 0.036-0.425 0.03-0.128 0-0.257 0.004-0.387 0.01v0c-0.104 0.015-0.236 0.039-0.396 0.072-0.168 0.037-0.299 0.089-0.393 0.157v0c-0.22-0.023-0.428-0.003-0.626 0.059-0.198 0.062-0.407 0.082-0.626 0.059v0c-0.196 0.056-0.397 0.128-0.604 0.216v0c-0.369-0.023-0.72 0-1.054 0.066-0.341 0.065-0.69 0.112-1.048 0.143v0c-0.45-0.248-0.661-0.609-0.632-1.082v0c-0.195-0.313-0.297-0.496-0.309-0.549-0.011-0.053 0.01-0.16 0.064-0.319v0c-0.062-0.177-0.113-0.346-0.152-0.508-0.032-0.16 0.005-0.325 0.111-0.496v0c-0.083-0.049-0.143-0.136-0.18-0.262-0.037-0.126-0.04-0.233-0.01-0.322v0c0.047-0.141 0.157-0.239 0.332-0.295 0.168-0.058 0.305-0.13 0.411-0.215v0c0.375-0.082 0.744-0.169 1.109-0.262 0.358-0.095 0.72-0.159 1.086-0.194v0c0.364-0.05 0.727-0.086 1.09-0.108 0.362-0.022 0.732-0.109 1.108-0.262v0c0.49 0.041 0.974 0.006 1.451-0.105 0.475-0.106 0.966-0.163 1.473-0.173v0c0.313-0.024 0.625-0.066 0.936-0.127 0.311-0.06 0.633-0.1 0.965-0.118v0c0.155-0.02 0.311-0.028 0.466-0.026 0.149 0 0.299-0.004 0.451-0.011v0c0.13-0.007 0.292-0.003 0.486 0.012 0.2 0.017 0.37 0.009 0.508-0.024v0c-0.109-0.206-0.269-0.408-0.481-0.606v0c-0.267-0.266-0.516-0.533-0.747-0.8-0.226-0.259-0.476-0.512-0.749-0.759v0c-0.235-0.276-0.5-0.506-0.795-0.689-0.286-0.187-0.57-0.391-0.851-0.611v0c-0.1-0.083-0.199-0.172-0.295-0.268-0.09-0.094-0.198-0.186-0.323-0.277v0c-0.113-0.108-0.23-0.207-0.349-0.297-0.124-0.098-0.245-0.191-0.365-0.28v0c-0.376-0.302-0.743-0.618-1.102-0.95-0.359-0.332-0.719-0.671-1.08-1.017v0c-0.064-0.042-0.149-0.127-0.256-0.255-0.115-0.123-0.23-0.26-0.343-0.411-0.113-0.151-0.213-0.29-0.298-0.418-0.077-0.132-0.131-0.238-0.161-0.32v0c-0.03-0.06-0.031-0.142-0.003-0.246 0.021-0.107 0.03-0.199 0.028-0.278v0c0.068-0.205 0.174-0.333 0.318-0.384v0c0.206-0.237 0.354-0.415 0.443-0.535 0.091-0.126 0.228-0.194 0.409-0.205v0c0.336-0.265 0.552-0.478 0.647-0.638 0.089-0.162 0.228-0.262 0.418-0.298v0c0.242-0.197 0.403-0.307 0.482-0.33 0.085-0.022 0.17-0.043 0.256-0.065z" fill="#130912" data-fill-palette-color="secondary"></path></g></svg></g></svg></g></svg></g><g></g></svg></g><defs></defs></svg><rect width="280" height="280" fill="none" stroke="none" visibility="hidden"></rect></g></svg></g></svg>