<svg xmlns="http://www.w3.org/2000/svg" version="1.1" xmlns:xlink="http://www.w3.org/1999/xlink" xmlns:svgjs="http://svgjs.dev/svgjs" width="2000" height="469" viewBox="0 0 2000 469"><g transform="matrix(1,0,0,1,-1.2121212121212466,0.15511649653916493)"><svg viewBox="0 0 396 93" data-background-color="#000000" preserveAspectRatio="xMidYMid meet" height="469" width="2000" xmlns="http://www.w3.org/2000/svg" xmlns:xlink="http://www.w3.org/1999/xlink"><g id="tight-bounds" transform="matrix(1,0,0,1,0.2400000000000091,-0.03075870826896221)"><svg viewBox="0 0 395.52 93.06151741653791" height="93.06151741653791" width="395.52"><g><svg viewBox="0 0 545.9405815182777 128.45383023705006" height="93.06151741653791" width="395.52"><g transform="matrix(1,0,0,1,150.42058151827766,17.75302574187885)"><svg viewBox="0 0 395.52 92.94777875329235" height="92.94777875329235" width="395.52"><g id="textblocktransform"><svg viewBox="0 0 395.52 92.94777875329235" height="92.94777875329235" width="395.52" id="textblock"><g><svg viewBox="0 0 395.52 92.94777875329235" height="92.94777875329235" width="395.52"><g transform="matrix(1,0,0,1,0,0)"><svg width="395.52" viewBox="-0.49 -37.7 166.83 39.21" height="92.94777875329235" data-palette-color="#ffffff"><path d="M4.98-0.63L4.64-0.78Q4.49-0.68 4.35-0.59 4.2-0.49 4.05-0.39L4.05-0.39Q3.52-0.1 3.08-0.07 2.64-0.05 2.1 0.44L2.1 0.44Q1.9 0.2 1.81 0.2 1.71 0.2 1.46 0.2L1.46 0.2Q0.83 0.2 0.73-0.15L0.73-0.15Q0.54-0.1 0.12 0.1-0.29 0.29-0.49 0.39L-0.49 0.39Q-0.05-0.24 0.1-0.59 0.24-0.93 0.27-1.22 0.29-1.51 0.32-1.83 0.34-2.15 0.54-2.73L0.54-2.73Q0.63-2.93 0.68-3.13 0.73-3.32 0.83-3.56L0.83-3.56Q1.07-4.3 1.25-5.22 1.42-6.15 1.81-6.84L1.81-6.84Q1.81-7.67 2.17-8.4 2.54-9.13 2.78-9.91L2.78-9.91Q2.88-10.21 3.05-10.5 3.22-10.79 3.32-11.08L3.32-11.08Q3.52-11.57 3.64-12.04 3.76-12.5 3.91-12.94L3.91-12.94Q4.3-14.36 4.69-15.75 5.08-17.14 5.42-18.55L5.42-18.55Q5.47-18.8 5.54-19.09 5.62-19.38 5.71-19.63L5.71-19.63Q5.96-20.36 6.03-21.12 6.1-21.88 6.49-22.56L6.49-22.56Q6.45-22.9 6.52-23.19 6.59-23.49 6.69-23.83 6.79-24.17 6.88-24.46 6.98-24.76 7.03-24.9L7.03-24.9Q7.28-25.54 7.4-26.05 7.52-26.56 7.91-27.15L7.91-27.15Q7.91-27.15 8.06-27.66 8.2-28.17 8.4-28.81 8.59-29.44 8.74-30 8.89-30.57 8.89-30.66L8.89-30.66Q8.98-31.05 9.06-31.4 9.13-31.74 9.23-32.13L9.23-32.13Q9.33-32.37 9.42-32.54 9.52-32.71 9.62-32.96L9.62-32.96Q9.77-33.5 9.91-34.28 10.06-35.06 10.3-35.5L10.3-35.5Q10.45-35.84 10.86-36.06 11.28-36.28 11.57-36.52L11.57-36.52Q12.45-36.43 12.87-36.62 13.28-36.82 13.67-37.11L13.67-37.11Q13.92-37.06 14.14-36.99 14.36-36.91 14.6-36.91L14.6-36.91Q15.53-35.89 15.89-34.81 16.26-33.74 16.6-32.67L16.6-32.67Q16.75-32.13 16.89-31.62 17.04-31.1 17.24-30.62L17.24-30.62Q17.29-30.47 17.38-30.3 17.48-30.13 17.58-29.93L17.58-29.93Q17.82-29.54 17.99-29.1 18.16-28.66 18.31-28.22L18.31-28.22Q18.6-27.88 18.75-27.42 18.9-26.95 19.02-26.49 19.14-26.03 19.29-25.61 19.43-25.2 19.73-24.9L19.73-24.9Q19.82-24.37 20.07-23.85 20.31-23.34 20.41-22.75L20.41-22.75Q20.7-22.36 21.09-21.26 21.48-20.17 21.88-18.9 22.27-17.63 22.61-16.46 22.95-15.28 23.1-14.79L23.1-14.79Q23.19-14.4 23.49-13.79 23.78-13.18 24.02-12.7L24.02-12.7Q24.22-12.16 24.44-11.57 24.66-10.99 24.8-10.45L24.8-10.45Q24.9-9.91 25.02-9.42 25.15-8.94 25.29-8.4L25.29-8.4Q25.39-8.06 25.59-7.79 25.78-7.52 25.88-7.13L25.88-7.13Q26.07-6.74 26.15-6.4 26.22-6.05 26.46-5.66L26.46-5.66Q26.42-5.13 26.51-4.98 26.61-4.83 26.71-4.64L26.71-4.64Q26.9-3.61 27.15-3 27.39-2.39 27.39-1.71L27.39-1.71Q27.39-1.12 27.17-0.98 26.95-0.83 26.61-0.49L26.61-0.49Q26.22-0.15 25.95 0.05 25.68 0.24 25.15 0.24L25.15 0.24Q24.56 0.2 24.44 0.42 24.32 0.63 24.27 0.73L24.27 0.73Q23.68 0.68 23.51 0.71 23.34 0.73 23.17 0.73 23 0.73 22.83 0.81 22.66 0.88 22.46 1.12L22.46 1.12Q22.12 0.73 21.8 0.42 21.48 0.1 21.24-0.29L21.24-0.29Q21.24-1.12 21.02-2.25 20.8-3.37 20.56-4L20.56-4Q20.07-5.27 19.65-6.49 19.24-7.71 18.85-8.98L18.85-8.98Q18.7-9.52 18.53-9.96 18.36-10.4 18.16-10.89L18.16-10.89Q18.26-10.5 18.24-10.08 18.21-9.67 17.97-9.28L17.97-9.28Q17.87-9.18 17.68-9.03 17.48-8.89 17.48-8.79L17.48-8.79Q16.89-8.3 16.46-7.86L16.46-7.86Q16.5-6.98 16.21-6.64 15.92-6.3 15.58-6.01L15.58-6.01Q14.75-5.96 14.55-6.1 14.36-6.25 14.01-6.3L14.01-6.3Q13.82-6.35 13.62-6.32 13.43-6.3 13.23-6.3L13.23-6.3Q12.84-6.3 12.5-6.49L12.5-6.49Q12.35-6.59 12.28-6.69 12.21-6.79 12.11-6.88L12.11-6.88Q11.72-7.28 11.21-7.54 10.69-7.81 10.21-8.01L10.21-8.01Q9.81-8.35 9.4-8.72 8.98-9.08 8.54-9.33L8.54-9.33Q8.15-8.4 7.93-7.69 7.71-6.98 7.42-6.3L7.42-6.3Q6.88-4.64 6.54-3.39 6.2-2.15 5.76-0.88L5.76-0.88Q5.57-0.83 5.4-0.73 5.22-0.63 4.98-0.63L4.98-0.63ZM9.23-11.18L9.42-11.18Q9.81-11.87 10.13-11.94 10.45-12.01 10.69-12.3L10.69-12.3Q10.79-12.4 10.91-12.55 11.04-12.7 11.18-12.84L11.18-12.84Q11.33-12.94 11.52-13.04 11.72-13.13 11.87-13.28L11.87-13.28Q12.26-13.62 12.52-13.87 12.79-14.11 13.33-14.11L13.33-14.11Q14.16-14.11 14.7-13.7 15.23-13.28 16.02-13.13L16.02-13.13Q16.11-12.84 16.65-12.72 17.19-12.6 17.48-12.4L17.48-12.4Q16.99-13.62 16.72-14.87 16.46-16.11 16.06-17.33L16.06-17.33Q15.77-18.41 15.38-19.46 14.99-20.51 14.6-21.48L14.6-21.48Q14.26-22.46 14.01-23.39 13.77-24.32 13.38-25.2L13.38-25.2Q12.99-24.32 12.6-23.05 12.21-21.78 12.01-20.8L12.01-20.8Q12.01-20.36 11.96-20.12L11.96-20.12Q11.87-19.78 11.77-19.51 11.67-19.24 11.57-18.95L11.57-18.95Q10.94-17.04 10.42-15.09 9.91-13.13 9.23-11.18L9.23-11.18ZM51.85-4.69L51.85-4.69Q51.8-3.96 52.17-3.59 52.54-3.22 52.78-2.69L52.78-2.69Q52.68-2 52.93-1.61L52.93-1.61Q52.78-1.32 52.63-0.95 52.49-0.59 52.19-0.34L52.19-0.34Q51.41 0 51.27 0.24 51.12 0.49 50.68 0.49L50.68 0.49Q50.44 0.73 50.14 1 49.85 1.27 49.61 1.51L49.61 1.51Q49.36 1.42 49.27 1.27 49.17 1.12 48.97 0.88L48.97 0.88Q48.48 0.73 48.09 0.37 47.7 0 47.41-0.46 47.12-0.93 46.85-1.44 46.58-1.95 46.38-2.39L46.38-2.39Q45.7-3.66 44.99-4.96 44.28-6.25 43.55-7.52L43.55-7.52Q43.16-8.15 42.8-8.81 42.43-9.47 42.04-10.16L42.04-10.16Q41.94-10.25 41.84-10.38 41.75-10.5 41.65-10.64L41.65-10.64Q41.31-11.13 41.14-11.74 40.96-12.35 40.43-12.74L40.43-12.74Q39.5-12.84 38.74-12.48 37.99-12.11 37.4-11.52L37.4-11.52Q37.45-11.18 37.45-10.89 37.45-10.6 37.45-10.3L37.45-10.3Q37.45-9.18 37.35-8.15 37.25-7.13 37.25-6.01L37.25-6.01Q37.25-5.52 37.3-5 37.35-4.49 37.45-4L37.45-4Q37.3-3.47 37.3-2.83L37.3-2.83Q37.3-2.49 37.38-2.2 37.45-1.9 37.45-1.56L37.45-1.56Q37.45-1.07 37.13-0.9 36.81-0.73 36.91-0.29L36.91-0.29Q36.33-0.05 35.79 0.2 35.25 0.44 34.67 0.54L34.67 0.54Q34.42 0.59 34.18 0.56 33.93 0.54 33.74 0.63L33.74 0.63Q33.49 0.73 33.35 1 33.2 1.27 32.96 1.27L32.96 1.27Q32.66 1.27 32.61 1.05 32.57 0.83 32.42 0.68L32.42 0.68Q32.18 0.59 32.03 0.59 31.88 0.59 31.74 0.44L31.74 0.44Q31.78 0 31.54-0.22 31.3-0.44 31.3-1.12L31.3-1.12Q31.3-1.66 31.37-2.15 31.44-2.64 31.44-3.17L31.44-3.17Q31.44-3.61 31.32-3.98 31.2-4.35 31.1-4.79L31.1-4.79Q31.05-4.98 31.1-5.18 31.15-5.37 31.15-5.57L31.15-5.57Q31.15-6.45 31.08-7.35 31-8.25 31-9.13L31-9.13Q31-9.47 31-9.77 31-10.06 31.05-10.35L31.05-10.35Q31.15-10.64 31.22-10.84 31.3-11.04 31.3-11.33L31.3-11.33Q31.3-12.26 31.1-13.16 30.91-14.06 30.91-14.94L30.91-14.94Q30.91-15.43 30.93-15.94 30.95-16.46 30.95-16.94L30.95-16.94Q30.95-18.36 30.91-19.73 30.86-21.09 30.86-22.46L30.86-22.46Q30.86-23.44 30.91-24.39 30.95-25.34 30.95-26.32L30.95-26.32Q30.95-27.54 30.86-28.74 30.76-29.93 30.76-31.2L30.76-31.2Q30.76-31.64 30.71-31.79 30.66-31.93 30.56-31.96 30.47-31.98 30.34-32.01 30.22-32.03 30.12-32.18L30.12-32.18Q30.12-32.47 30.37-32.59 30.61-32.71 30.61-33.4L30.61-33.4Q30.61-33.79 30.54-34.18 30.47-34.57 30.47-34.96L30.47-34.96Q30.47-35.55 30.71-36.13 30.95-36.72 31.15-37.26L31.15-37.26Q31.74-37.3 31.96-37.26 32.18-37.21 32.42-37.3L32.42-37.3Q32.57-36.77 33.05-36.74 33.54-36.72 33.93-36.62L33.93-36.62Q34.37-36.57 34.79-36.4 35.2-36.23 35.59-36.23L35.59-36.23Q35.69-35.94 36.01-35.82 36.33-35.69 36.67-35.6L36.67-35.6Q37.06-35.64 37.28-35.94 37.5-36.23 37.89-36.23L37.89-36.23Q38.18-36.23 38.57-35.82 38.96-35.4 39.16-35.16L39.16-35.16Q39.35-35.01 39.89-34.52 40.43-34.03 41.06-33.52 41.7-33.01 42.23-32.54 42.77-32.08 42.92-32.03L42.92-32.03Q44.92-30.03 46.65-28.39 48.39-26.76 50.44-25.44L50.44-25.44Q50.49-25.29 50.56-25.2 50.63-25.1 50.73-24.95L50.73-24.95Q50.73-24.56 50.58-24.37 50.44-24.17 50.44-23.88L50.44-23.88Q50.44-23.73 50.51-23.58 50.58-23.44 50.58-23.29L50.58-23.29Q50.63-23.1 50.61-22.92 50.58-22.75 50.58-22.56L50.58-22.56Q50.58-22.07 50.9-21.68 51.22-21.29 51.22-20.8L51.22-20.8Q51.12-20.36 50.83-20.26 50.53-20.17 50.34-20.02L50.34-20.02Q50.24-19.92 50.17-19.78 50.1-19.63 50-19.53L50-19.53Q48.92-19.04 48.44-18.63 47.95-18.21 47.41-17.82L47.41-17.82Q47.26-17.72 46.92-17.5 46.58-17.29 46.24-17.07 45.9-16.85 45.63-16.6 45.36-16.36 45.36-16.21L45.36-16.21Q45.36-15.87 45.77-15.26 46.19-14.65 46.38-14.31L46.38-14.31Q46.92-13.43 47.36-12.57 47.8-11.72 48.34-10.89L48.34-10.89Q49.31-9.38 50.17-7.81 51.02-6.25 51.85-4.69ZM43.89-22.85L43.89-22.85Q42.77-24.27 41.48-25.42 40.18-26.56 39.01-27.83L39.01-27.83 38.47-27.93Q38.18-28.42 37.81-28.78 37.45-29.15 37.06-29.54L37.06-29.54Q37.11-29 37.11-28.52 37.11-28.03 37.11-27.49L37.11-27.49Q37.11-25.93 37.03-24.44 36.96-22.95 36.96-21.44L36.96-21.44Q36.96-19.92 37.11-18.55L37.11-18.55Q38.13-18.55 38.96-19.14L38.96-19.14Q39.3-19.38 39.6-19.65 39.89-19.92 40.23-20.17L40.23-20.17Q40.62-20.41 41.14-20.75 41.65-21.09 42.16-21.44 42.67-21.78 43.14-22.14 43.6-22.51 43.89-22.85ZM89.59-0.15L89.59-0.15Q89.35 0.1 89.06 0.15 88.76 0.2 88.47 0.2L88.47 0.2Q87.74 0.54 86.91 0.54L86.91 0.54Q86.37 0.24 86.32 0.34 86.27 0.44 86.13 0.54L86.13 0.54Q85.4 0.88 84.81 0.9 84.22 0.93 83.83 1.17L83.83 1.17Q83.44 0.88 83.42 0.32 83.39-0.24 83.3-0.63L83.3-0.63Q83.05-0.98 82.95-1.49 82.86-2 82.81-2.54 82.76-3.08 82.69-3.59 82.61-4.1 82.42-4.49L82.42-4.49Q82.37-4.74 82.39-4.93 82.42-5.13 82.32-5.37L82.32-5.37Q82.37-6.2 82.27-6.69 82.17-7.18 82.08-7.71L82.08-7.71Q82.03-8.01 82.03-8.37 82.03-8.74 81.73-8.94L81.73-8.94Q81.88-9.62 81.78-9.96 81.68-10.3 81.64-10.6L81.64-10.6Q81.59-10.99 81.59-11.45 81.59-11.91 81.49-12.3L81.49-12.3Q81.2-14.65 80.85-16.99 80.51-19.34 80.22-21.68L80.22-21.68Q79.93-21.44 79.8-20.95 79.68-20.46 79.58-20.07L79.58-20.07Q79.29-19.19 79.05-18.26 78.8-17.33 78.56-16.46L78.56-16.46Q78.46-16.06 78.39-15.55 78.32-15.04 78.17-14.65L78.17-14.65Q77.68-13.23 77.31-12.21 76.95-11.18 76.61-10.11L76.61-10.11Q76.51-9.52 76.41-8.98 76.31-8.45 76.22-7.91L76.22-7.91Q76.17-7.62 76.07-7.08 75.97-6.54 75.87-6.3L75.87-6.3Q75.78-6.05 75.7-5.96 75.63-5.86 75.68-5.62L75.68-5.62Q75.19-4.88 75.02-4 74.85-3.13 74.41-2.29L74.41-2.29Q74.41-1.71 73.97-1.27L73.97-1.27Q73.73-1.22 73.51-1.17 73.29-1.12 73.04-0.98L73.04-0.98Q72.8-1.07 72.48-1.1 72.16-1.12 71.87-1.12L71.87-1.12Q71.63-1.17 71.43-1.29 71.24-1.42 70.99-1.46L70.99-1.46Q70.75-1.76 70.45-1.98 70.16-2.2 69.87-2.44L69.87-2.44Q69.58-3.17 69.33-3.42L69.33-3.42Q69.18-3.96 68.94-4.42 68.7-4.88 68.6-5.47L68.6-5.47Q68.45-6.01 68.23-6.47 68.01-6.93 67.77-7.47L67.77-7.47Q67.67-7.81 67.55-8.13 67.43-8.45 67.28-8.79L67.28-8.79Q67.23-9.18 67.01-9.77 66.79-10.35 66.69-10.79L66.69-10.79Q66.69-10.84 66.52-11.3 66.35-11.77 66.18-12.3 66.01-12.84 65.84-13.28 65.67-13.72 65.62-13.77L65.62-13.77Q65.52-14.01 65.45-14.23 65.38-14.45 65.28-14.75L65.28-14.75Q65.08-15.38 64.79-16.04 64.5-16.7 64.2-17.29L64.2-17.29Q63.96-17.77 63.86-18.24 63.76-18.7 63.62-19.14L63.62-19.14Q63.52-19.38 63.45-19.58 63.37-19.78 63.28-20.02L63.28-20.02Q63.18-20.31 63.08-20.63 62.98-20.95 62.89-21.29L62.89-21.29Q62.64-21.19 62.67-20.87 62.69-20.56 62.64-20.31L62.64-20.31Q62.54-19.78 62.54-19.26 62.54-18.75 62.5-18.21L62.5-18.21Q62.4-17.63 62.3-17.09 62.2-16.55 62.15-16.02L62.15-16.02Q62.15-14.7 62.01-13.38L62.01-13.38Q61.91-12.21 61.76-11.01 61.62-9.81 61.57-8.54L61.57-8.54Q61.57-7.62 61.37-6.71 61.18-5.81 61.27-4.83L61.27-4.83Q61.18-4.64 61.18-4.54 61.18-4.44 61.18-4.25L61.18-4.25Q61.18-4 61.15-3.71 61.13-3.42 61.13-3.17L61.13-3.17Q61.13-2.73 61.23-2.59L61.23-2.59Q61.08-2.15 61.08-1.64 61.08-1.12 61.08-0.63L61.08-0.63Q60.98-0.44 60.96-0.24 60.93-0.05 60.79 0.15L60.79 0.15Q60.83 0.98 60.3 0.98L60.3 0.98Q60.15 0.98 59.98 0.9 59.81 0.83 59.71 0.68L59.71 0.68Q59.17 0.73 59.1 0.44 59.03 0.15 58.78 0.2L58.78 0.2Q58.2 0.44 58.12 0.34 58.05 0.24 57.81 0.29L57.81 0.29Q57.42-0.1 57.29-0.05 57.17 0 57.08 0L57.08 0Q56.64-0.15 56.59-0.07 56.54 0 56.39 0L56.39 0Q56.15-0.24 55.73-0.24 55.32-0.24 55.02-0.29L55.02-0.29Q54.98-0.49 54.95-0.66 54.93-0.83 54.93-1.07L54.93-1.07Q54.93-1.37 54.95-1.64 54.98-1.9 54.98-2.2L54.98-2.2Q54.98-2.44 54.95-2.71 54.93-2.98 54.93-3.32L54.93-3.32Q54.93-3.66 54.98-3.98 55.02-4.3 55.02-4.69L55.02-4.69Q55.02-4.83 54.98-4.96 54.93-5.08 54.93-5.27L54.93-5.27Q55.22-5.91 55.2-6.27 55.17-6.64 55.22-6.98L55.22-6.98Q55.32-7.81 55.39-8.62 55.46-9.42 55.56-10.25L55.56-10.25Q55.56-11.62 55.63-12.52 55.71-13.43 55.85-14.36L55.85-14.36Q55.95-14.79 56.03-15.19 56.1-15.58 56.2-16.02L56.2-16.02Q56.29-16.75 56.32-17.55 56.34-18.36 56.44-19.14L56.44-19.14Q56.54-20.36 56.68-21.56 56.83-22.75 56.93-23.93L56.93-23.93Q57.03-24.85 57.15-25.76 57.27-26.66 57.27-27.49L57.27-27.49Q57.27-27.93 57.39-28.61 57.51-29.3 57.56-29.79L57.56-29.79Q57.66-30.96 57.73-32.08 57.81-33.2 57.81-34.33L57.81-34.33 57.81-34.86Q57.81-34.96 57.91-35.06 58-35.16 58-35.4L58-35.4Q58-35.84 58.22-36.01 58.44-36.18 58.59-36.57L58.59-36.57Q58.83-36.57 59.15-36.52 59.47-36.47 59.61-36.23L59.61-36.23Q59.96-36.33 60.3-36.33 60.64-36.33 60.88-36.57L60.88-36.57Q61.18-36.57 61.32-36.43 61.47-36.28 61.71-36.18L61.71-36.18Q61.91-36.28 62.1-36.35 62.3-36.43 62.5-36.52L62.5-36.52Q62.64-36.43 62.71-36.3 62.79-36.18 62.93-36.13L62.93-36.13Q63.67-36.33 63.91-36.18L63.91-36.18Q64.01-35.99 64.03-35.79 64.06-35.6 64.11-35.4L64.11-35.4Q64.59-34.91 64.74-34.3 64.89-33.69 65.28-33.2L65.28-33.2Q65.38-32.91 65.5-32.62 65.62-32.32 65.72-31.93L65.72-31.93 65.86-31.35Q66.06-30.86 66.35-30.18L66.35-30.18Q66.6-29.25 66.79-28.27 66.99-27.29 67.43-26.46L67.43-26.46Q67.48-26.17 67.6-25.76 67.72-25.34 67.82-25.05L67.82-25.05Q68.16-24.22 68.53-23.41 68.89-22.61 69.18-21.68L69.18-21.68Q69.48-20.75 69.7-19.78 69.92-18.8 70.26-17.87L70.26-17.87Q70.55-16.99 70.7-16.6 70.84-16.21 71.09-15.82L71.09-15.82Q71.09-15.67 71.16-15.33 71.24-14.99 71.38-14.62 71.53-14.26 71.67-13.94 71.82-13.62 71.97-13.57L71.97-13.57Q72.11-13.67 72.14-13.87 72.16-14.06 72.31-14.21L72.31-14.21Q72.36-14.75 72.48-15.53 72.6-16.31 72.85-16.8L72.85-16.8Q72.85-17.04 72.97-17.7 73.09-18.36 73.29-19.12 73.48-19.87 73.65-20.51 73.82-21.14 73.97-21.29L73.97-21.29Q74.07-21.92 74.14-22.07 74.21-22.22 74.31-22.31L74.31-22.31Q74.36-22.71 74.51-23.05 74.65-23.39 74.7-23.78L74.7-23.78Q74.8-24.61 74.95-25.15 75.09-25.68 75.34-26.46L75.34-26.46Q75.53-27.15 75.7-27.86 75.87-28.56 76.12-29.25L76.12-29.25Q76.7-31.1 77.17-32.54 77.63-33.98 78.32-35.35L78.32-35.35Q78.46-35.79 78.56-35.89 78.66-35.99 78.75-36.08L78.75-36.08Q79.15-36.23 79.56-36.23 79.98-36.23 80.41-36.18L80.41-36.18Q80.9-36.38 81.15-36.62L81.15-36.62Q81.34-36.38 81.73-36.38L81.73-36.38Q82.22-36.38 82.42-36.67L82.42-36.67Q82.61-36.57 82.73-36.62 82.86-36.67 83.1-36.57L83.1-36.57Q83.2-36.67 83.34-36.79 83.49-36.91 83.64-36.91L83.64-36.91Q84.03-36.43 84.25-36.16 84.47-35.89 84.57-35.55L84.57-35.55Q84.71-35.11 84.74-34.59 84.76-34.08 85-33.64L85-33.64Q84.96-33.01 85.08-31.71 85.2-30.42 85.37-28.98 85.54-27.54 85.74-26.32 85.93-25.1 86.08-24.8L86.08-24.8Q86.03-24.17 86.13-23.73 86.23-23.29 86.23-22.85L86.23-22.85Q86.23-22.71 86.27-22.24 86.32-21.78 86.37-21.26 86.42-20.75 86.49-20.29 86.57-19.82 86.62-19.63L86.62-19.63Q86.62-18.75 86.91-18.26L86.91-18.26Q87.15-17.04 87.32-15.82 87.5-14.6 87.64-13.33L87.64-13.33Q87.74-12.7 87.76-12.11 87.79-11.52 87.89-10.89L87.89-10.89Q87.93-10.64 88.01-10.4 88.08-10.16 88.13-9.91L88.13-9.91Q88.23-9.42 88.28-8.98 88.33-8.54 88.42-8.11L88.42-8.11Q88.47-7.86 88.57-7.59 88.67-7.32 88.57-7.03L88.57-7.03Q88.67-6.69 88.64-6.3 88.62-5.91 88.81-5.62L88.81-5.62Q88.81-4.59 88.96-3.81L88.96-3.81Q89.01-3.22 89.25-2.64L89.25-2.64Q89.35-2.05 89.42-1.42 89.5-0.78 89.59-0.15ZM117.52-19.38L117.52-19.38Q117.42-19.19 117.33-19.02 117.23-18.85 117.18-18.65L117.18-18.65Q117.38-18.46 117.55-18.24 117.72-18.02 117.72-17.77L117.72-17.77Q117.72-17.58 117.64-17.41 117.57-17.24 117.62-17.09L117.62-17.09Q117.42-16.75 117.2-16.46 116.98-16.16 116.89-15.82L116.89-15.82Q116.69-15.63 116.57-15.43 116.45-15.23 116.35-15.04L116.35-15.04Q116.11-14.94 116.03-14.72 115.96-14.5 115.76-14.36L115.76-14.36Q115.72-14.16 115.28-13.43 114.84-12.7 114.3-11.87 113.76-11.04 113.27-10.25 112.79-9.47 112.59-9.23L112.59-9.23Q112.49-8.98 112.37-8.84 112.25-8.69 112.1-8.5L112.1-8.5Q112-8.35 111.96-8.18 111.91-8.01 111.81-7.91L111.81-7.91Q111.71-7.71 111.59-7.57 111.47-7.42 111.37-7.18L111.37-7.18Q110.88-6.54 110.39-5.66 109.9-4.79 109.47-4.1L109.47-4.1Q109.22-3.71 109-3.32 108.78-2.93 108.54-2.54L108.54-2.54Q108.29-2.15 108.05-1.81 107.81-1.46 107.56-1.07L107.56-1.07Q107.17-0.78 106.88-0.37 106.58 0.05 106.19 0.34L106.19 0.34Q105.56 0.34 105.41-0.24L105.41-0.24Q104.78-0.39 104.78-0.24 104.78-0.1 104.78 0L104.78 0Q104.58 0.1 104.51 0.29 104.44 0.49 104.24 0.59L104.24 0.59Q103.85 0.49 103.58 0.27 103.31 0.05 102.82 0.1L102.82 0.1Q102.63-0.2 102.39-0.42 102.14-0.63 101.95-0.88L101.95-0.88Q101.85-1.17 101.68-1.37 101.51-1.56 101.36-1.76L101.36-1.76Q101.21-2 101.07-2.2 100.92-2.39 100.77-2.59L100.77-2.59Q100.43-3.03 100.11-3.44 99.8-3.86 99.55-4.3L99.55-4.3Q99.16-4.88 98.8-5.49 98.43-6.1 98.04-6.69L98.04-6.69Q97.84-6.98 97.65-7.28 97.45-7.57 97.31-7.86L97.31-7.86Q97.21-8.11 97.04-8.45 96.87-8.79 96.62-8.89L96.62-8.89Q96.53-9.28 96.28-9.47 96.04-9.67 95.79-9.96L95.79-9.96Q95.45-10.35 95.16-10.82 94.87-11.28 94.57-11.77L94.57-11.77Q93.6-13.13 92.74-14.45 91.89-15.77 91.06-17.19L91.06-17.19Q91.3-17.97 91.3-18.36 91.3-18.75 91.55-18.99L91.55-18.99Q91.55-19.19 91.64-19.58L91.64-19.58Q92.28-20.65 92.86-21.53L92.86-21.53Q93.4-22.36 93.62-22.9 93.84-23.44 94.08-24.02L94.08-24.02Q94.33-24.17 94.47-24.39 94.62-24.61 94.87-24.8L94.87-24.8Q94.96-25.34 95.31-25.71 95.65-26.07 95.74-26.61L95.74-26.61Q96.18-26.95 96.23-27.39L96.23-27.39Q96.87-27.83 97.01-28.56L97.01-28.56Q97.4-28.96 97.67-29.44 97.94-29.93 98.19-30.47L98.19-30.47Q98.77-30.96 99.11-31.74L99.11-31.74Q99.41-31.93 99.55-32.28 99.7-32.62 99.94-32.86L99.94-32.86Q100.33-33.5 100.55-33.91 100.77-34.33 101.02-34.77L101.02-34.77Q101.36-34.77 101.46-35.01 101.56-35.25 101.85-35.21L101.85-35.21Q101.85-35.64 102.09-35.99L102.09-35.99Q102.19-36.04 102.39-36.11 102.58-36.18 102.58-36.28L102.58-36.28Q102.48-36.87 102.63-36.96 102.78-37.06 102.87-37.16L102.87-37.16Q103.41-37.06 103.61-37.01 103.8-36.96 104.24-36.67L104.24-36.67Q104.73-36.67 104.92-36.47 105.12-36.28 105.36-36.18L105.36-36.18Q105.56-35.99 105.68-35.79 105.8-35.6 106.05-35.5L106.05-35.5Q106.44-34.96 106.88-34.33 107.32-33.69 107.71-33.15L107.71-33.15Q108.24-32.42 108.81-31.76 109.37-31.1 109.86-30.32L109.86-30.32Q110-30.08 110.39-29.47 110.78-28.86 111.27-28.17 111.76-27.49 112.15-26.93 112.54-26.37 112.69-26.27L112.69-26.27Q112.83-26.03 113.32-25.34 113.81-24.66 114.37-23.9 114.93-23.14 115.47-22.46 116.01-21.78 116.2-21.58L116.2-21.58Q116.74-20.85 117.01-20.39 117.28-19.92 117.52-19.38ZM106.34-10.21L106.34-10.21Q106.88-10.94 107.17-11.52 107.46-12.11 107.76-12.7L107.76-12.7Q108.24-13.28 108.34-13.53 108.44-13.77 108.59-14.01L108.59-14.01Q108.98-14.6 109.39-15.19 109.81-15.77 110.05-16.46L110.05-16.46Q110.34-16.65 110.49-16.94 110.64-17.24 110.93-17.48L110.93-17.48Q110.64-18.51 110.25-19.07 109.86-19.63 109.47-20.17L109.47-20.17Q109.32-20.41 109.17-20.65 109.03-20.9 108.88-21.14L108.88-21.14Q108.68-21.29 108.56-21.44 108.44-21.58 108.29-21.73L108.29-21.73Q108.2-21.97 108-22.36L108-22.36Q107.81-22.61 107.61-22.8 107.41-23 107.27-23.29L107.27-23.29Q107.07-23.49 106.78-23.83 106.49-24.17 106.17-24.58 105.85-25 105.61-25.37 105.36-25.73 105.22-25.98L105.22-25.98Q105.12-26.22 105.05-26.39 104.97-26.56 104.88-26.76L104.88-26.76Q104.63-27.1 104.39-27.37 104.14-27.64 103.9-27.98L103.9-27.98Q103.75-27.88 103.63-27.86 103.51-27.83 103.41-27.73L103.41-27.73Q103.07-27.1 102.65-26.56 102.24-26.03 101.85-25.39L101.85-25.39Q101.51-24.8 101.16-24.19 100.82-23.58 100.48-23L100.48-23Q100.24-22.66 100.02-22.34 99.8-22.02 99.55-21.63L99.55-21.63Q99.31-21.29 99.14-20.92 98.97-20.56 98.72-20.21L98.72-20.21Q98.33-19.73 98.09-19.34 97.84-18.95 97.6-18.41L97.6-18.41Q97.75-18.12 98.06-17.6 98.38-17.09 98.72-16.58 99.06-16.06 99.33-15.63 99.6-15.19 99.65-15.04L99.65-15.04Q100.04-14.7 100.29-14.28 100.53-13.87 100.92-13.48L100.92-13.48Q101.12-13.09 101.36-12.79 101.6-12.5 101.85-12.16L101.85-12.16Q102.09-11.82 102.48-11.16 102.87-10.5 103.26-9.81 103.65-9.13 104.05-8.54 104.44-7.96 104.68-7.81L104.68-7.81Q105.17-8.35 105.49-9.01 105.8-9.67 106.34-10.21ZM142.42-4.69L142.42-4.69Q142.37-3.96 142.74-3.59 143.11-3.22 143.35-2.69L143.35-2.69Q143.25-2 143.5-1.61L143.5-1.61Q143.35-1.32 143.2-0.95 143.06-0.59 142.76-0.34L142.76-0.34Q141.98 0 141.84 0.24 141.69 0.49 141.25 0.49L141.25 0.49Q141.01 0.73 140.71 1 140.42 1.27 140.18 1.51L140.18 1.51Q139.93 1.42 139.83 1.27 139.74 1.12 139.54 0.88L139.54 0.88Q139.05 0.73 138.66 0.37 138.27 0 137.98-0.46 137.69-0.93 137.42-1.44 137.15-1.95 136.95-2.39L136.95-2.39Q136.27-3.66 135.56-4.96 134.85-6.25 134.12-7.52L134.12-7.52Q133.73-8.15 133.36-8.81 133-9.47 132.61-10.16L132.61-10.16Q132.51-10.25 132.41-10.38 132.31-10.5 132.22-10.64L132.22-10.64Q131.87-11.13 131.7-11.74 131.53-12.35 131-12.74L131-12.74Q130.07-12.84 129.31-12.48 128.55-12.11 127.97-11.52L127.97-11.52Q128.02-11.18 128.02-10.89 128.02-10.6 128.02-10.3L128.02-10.3Q128.02-9.18 127.92-8.15 127.82-7.13 127.82-6.01L127.82-6.01Q127.82-5.52 127.87-5 127.92-4.49 128.02-4L128.02-4Q127.87-3.47 127.87-2.83L127.87-2.83Q127.87-2.49 127.94-2.2 128.02-1.9 128.02-1.56L128.02-1.56Q128.02-1.07 127.7-0.9 127.38-0.73 127.48-0.29L127.48-0.29Q126.89-0.05 126.36 0.2 125.82 0.44 125.23 0.54L125.23 0.54Q124.99 0.59 124.75 0.56 124.5 0.54 124.31 0.63L124.31 0.63Q124.06 0.73 123.92 1 123.77 1.27 123.53 1.27L123.53 1.27Q123.23 1.27 123.18 1.05 123.13 0.83 122.99 0.68L122.99 0.68Q122.74 0.59 122.6 0.59 122.45 0.59 122.3 0.44L122.3 0.44Q122.35 0 122.11-0.22 121.87-0.44 121.87-1.12L121.87-1.12Q121.87-1.66 121.94-2.15 122.01-2.64 122.01-3.17L122.01-3.17Q122.01-3.61 121.89-3.98 121.77-4.35 121.67-4.79L121.67-4.79Q121.62-4.98 121.67-5.18 121.72-5.37 121.72-5.57L121.72-5.57Q121.72-6.45 121.65-7.35 121.57-8.25 121.57-9.13L121.57-9.13Q121.57-9.47 121.57-9.77 121.57-10.06 121.62-10.35L121.62-10.35Q121.72-10.64 121.79-10.84 121.87-11.04 121.87-11.33L121.87-11.33Q121.87-12.26 121.67-13.16 121.47-14.06 121.47-14.94L121.47-14.94Q121.47-15.43 121.5-15.94 121.52-16.46 121.52-16.94L121.52-16.94Q121.52-18.36 121.47-19.73 121.43-21.09 121.43-22.46L121.43-22.46Q121.43-23.44 121.47-24.39 121.52-25.34 121.52-26.32L121.52-26.32Q121.52-27.54 121.43-28.74 121.33-29.93 121.33-31.2L121.33-31.2Q121.33-31.64 121.28-31.79 121.23-31.93 121.13-31.96 121.03-31.98 120.91-32.01 120.79-32.03 120.69-32.18L120.69-32.18Q120.69-32.47 120.94-32.59 121.18-32.71 121.18-33.4L121.18-33.4Q121.18-33.79 121.11-34.18 121.03-34.57 121.03-34.96L121.03-34.96Q121.03-35.55 121.28-36.13 121.52-36.72 121.72-37.26L121.72-37.26Q122.3-37.3 122.52-37.26 122.74-37.21 122.99-37.3L122.99-37.3Q123.13-36.77 123.62-36.74 124.11-36.72 124.5-36.62L124.5-36.62Q124.94-36.57 125.36-36.4 125.77-36.23 126.16-36.23L126.16-36.23Q126.26-35.94 126.58-35.82 126.89-35.69 127.24-35.6L127.24-35.6Q127.63-35.64 127.85-35.94 128.07-36.23 128.46-36.23L128.46-36.23Q128.75-36.23 129.14-35.82 129.53-35.4 129.73-35.16L129.73-35.16Q129.92-35.01 130.46-34.52 131-34.03 131.63-33.52 132.27-33.01 132.8-32.54 133.34-32.08 133.49-32.03L133.49-32.03Q135.49-30.03 137.22-28.39 138.95-26.76 141.01-25.44L141.01-25.44Q141.05-25.29 141.13-25.2 141.2-25.1 141.3-24.95L141.3-24.95Q141.3-24.56 141.15-24.37 141.01-24.17 141.01-23.88L141.01-23.88Q141.01-23.73 141.08-23.58 141.15-23.44 141.15-23.29L141.15-23.29Q141.2-23.1 141.18-22.92 141.15-22.75 141.15-22.56L141.15-22.56Q141.15-22.07 141.47-21.68 141.79-21.29 141.79-20.8L141.79-20.8Q141.69-20.36 141.4-20.26 141.1-20.17 140.91-20.02L140.91-20.02Q140.81-19.92 140.74-19.78 140.66-19.63 140.57-19.53L140.57-19.53Q139.49-19.04 139-18.63 138.52-18.21 137.98-17.82L137.98-17.82Q137.83-17.72 137.49-17.5 137.15-17.29 136.81-17.07 136.46-16.85 136.2-16.6 135.93-16.36 135.93-16.21L135.93-16.21Q135.93-15.87 136.34-15.26 136.76-14.65 136.95-14.31L136.95-14.31Q137.49-13.43 137.93-12.57 138.37-11.72 138.91-10.89L138.91-10.89Q139.88-9.38 140.74-7.81 141.59-6.25 142.42-4.69ZM134.46-22.85L134.46-22.85Q133.34-24.27 132.05-25.42 130.75-26.56 129.58-27.83L129.58-27.83 129.04-27.93Q128.75-28.42 128.38-28.78 128.02-29.15 127.63-29.54L127.63-29.54Q127.68-29 127.68-28.52 127.68-28.03 127.68-27.49L127.68-27.49Q127.68-25.93 127.6-24.44 127.53-22.95 127.53-21.44L127.53-21.44Q127.53-19.92 127.68-18.55L127.68-18.55Q128.7-18.55 129.53-19.14L129.53-19.14Q129.87-19.38 130.17-19.65 130.46-19.92 130.8-20.17L130.8-20.17Q131.19-20.41 131.7-20.75 132.22-21.09 132.73-21.44 133.24-21.78 133.71-22.14 134.17-22.51 134.46-22.85ZM166.34-34.57L166.34-34.57Q165.81-33.59 165.12-32.28 164.44-30.96 164.05-29.98L164.05-29.98Q163.9-29.64 163.78-29.32 163.66-29 163.51-28.66L163.51-28.66Q163.27-27.93 162.9-27.27 162.54-26.61 162.24-25.88L162.24-25.88Q161.8-24.9 161.34-23.9 160.88-22.9 160.44-21.83L160.44-21.83Q159.95-20.85 159.68-20.14 159.41-19.43 159.12-18.7 158.83-17.97 158.61-17.26 158.39-16.55 158.24-15.97L158.24-15.97Q157.8-15.19 157.51-14.79L157.51-14.79Q157.41-13.92 157.31-13.04 157.21-12.16 157.21-11.23L157.21-11.23Q157.21-10.79 157.29-10.38 157.36-9.96 157.41-9.52L157.41-9.52Q157.46-8.89 157.43-8.28 157.41-7.67 157.46-7.03L157.46-7.03Q157.51-5.81 157.58-4.61 157.65-3.42 157.7-2.15L157.7-2.15Q157.75-1.27 157.63-0.66 157.51-0.05 157.56 0.59L157.56 0.59Q157.41 0.68 157.24 0.73 157.07 0.78 156.92 0.88L156.92 0.88Q156.38 0.88 156.21 0.85 156.04 0.83 155.9 0.93L155.9 0.93Q155.46 0.63 155.41 0.66 155.36 0.68 155.31 0.68L155.31 0.68Q154.72 0.49 154.68 0.39 154.63 0.29 154.48 0.2L154.48 0.2Q153.94 0.2 153.6 0.34L153.6 0.34Q153.45 0.24 153.36 0.15 153.26 0.05 153.11-0.05L153.11-0.05Q152.67-0.1 152.38-0.17 152.09-0.24 151.89-0.34L151.89-0.34Q151.75-0.73 151.57-1.03 151.4-1.32 151.4-1.81L151.4-1.81Q151.4-2.2 151.5-2.54 151.6-2.88 151.65-3.27L151.65-3.27Q151.65-3.52 151.62-3.71 151.6-3.91 151.6-4.15L151.6-4.15Q151.6-4.39 151.7-4.79L151.7-4.79Q151.55-5.91 151.57-7.15 151.6-8.4 151.6-9.52L151.6-9.52Q151.6-10.64 151.4-11.62L151.4-11.62Q151.45-12.26 151.4-12.52 151.35-12.79 151.35-13.09L151.35-13.09Q151.35-13.33 151.4-13.6 151.45-13.87 151.45-14.11L151.45-14.11Q151.45-14.16 151.38-14.62 151.31-15.09 151.21-15.6 151.11-16.11 151.01-16.58 150.92-17.04 150.92-17.14L150.92-17.14Q150.43-18.02 150.18-18.8 149.94-19.58 149.65-20.12L149.65-20.12Q149.45-20.51 149.26-20.9 149.06-21.29 148.91-21.73L148.91-21.73Q148.82-21.97 148.74-22.27 148.67-22.56 148.57-22.8L148.57-22.8Q148.38-23.19 148.21-23.66 148.03-24.12 147.79-24.41L147.79-24.41Q147.59-24.85 147.42-25.22 147.25-25.59 147.25-25.93L147.25-25.93Q147.11-26.51 146.79-26.98 146.47-27.44 146.23-27.93L146.23-27.93Q146.08-28.22 146.01-28.47 145.93-28.71 145.84-28.96L145.84-28.96Q145.74-29.15 145.57-29.44 145.4-29.74 145.2-29.88L145.2-29.88Q145.1-30.32 144.86-30.66 144.62-31.01 144.52-31.45L144.52-31.45Q144.27-31.79 143.98-32.13L143.98-32.13Q143.79-32.86 143.44-33.47 143.1-34.08 142.81-34.77L142.81-34.77Q143.01-35.79 143.93-36.04L143.93-36.04Q144.42-36.62 144.52-36.67 144.62-36.72 144.96-36.72L144.96-36.72Q145.25-36.96 145.54-37.13 145.84-37.3 146.23-37.21L146.23-37.21Q146.28-37.4 146.5-37.55 146.72-37.7 146.91-37.7L146.91-37.7Q147.2-37.7 147.42-37.4 147.64-37.11 147.89-36.96L147.89-36.96Q148.28-36.28 148.69-35.64 149.11-35.01 149.4-34.33L149.4-34.33Q149.74-33.64 150.01-32.96 150.28-32.28 150.82-31.64L150.82-31.64Q151.06-30.66 151.57-29.81 152.09-28.96 152.43-27.98L152.43-27.98Q152.67-27.39 152.99-26.83 153.31-26.27 153.55-25.63L153.55-25.63Q153.7-25.34 153.8-25.05 153.89-24.76 153.99-24.46L153.99-24.46Q154.09-24.22 154.19-23.83 154.28-23.44 154.43-23.19L154.43-23.19Q154.77-23.54 155.02-24.07L155.02-24.07Q155.36-24.76 155.72-25.37 156.09-25.98 156.38-26.66L156.38-26.66Q156.77-27.29 156.95-27.98 157.12-28.66 157.36-29.35L157.36-29.35Q157.46-29.59 157.58-29.83 157.7-30.08 157.8-30.37L157.8-30.37Q157.95-30.66 158.04-30.96 158.14-31.25 158.24-31.54L158.24-31.54Q158.58-32.47 159-33.37 159.41-34.28 159.85-35.21L159.85-35.21Q159.9-35.35 160.07-35.64 160.24-35.94 160.46-36.25 160.68-36.57 160.88-36.82 161.07-37.06 161.22-37.16L161.22-37.16Q161.32-37.26 161.54-37.28 161.76-37.3 161.9-37.35L161.9-37.35Q162.34-37.35 162.54-37.11L162.54-37.11Q163.12-36.87 163.42-36.77 163.71-36.67 163.85-36.33L163.85-36.33Q164.59-35.84 164.95-35.77 165.32-35.69 165.51-35.35L165.51-35.35Q166.05-35.01 166.15-34.86 166.25-34.72 166.34-34.57Z" opacity="1" transform="matrix(1,0,0,1,0,0)" fill="#000000" class="wordmark-text-0" data-fill-palette-color="primary" id="text-0"></path></svg></g></svg></g></svg></g></svg></g><g><svg viewBox="0 0 128.4778417013154 128.45383023705006" height="128.45383023705006" width="128.4778417013154"><g><svg xmlns="http://www.w3.org/2000/svg" xmlns:xlink="http://www.w3.org/1999/xlink" version="1.1" x="0" y="0" viewBox="7.956999999999994 7.349999999999994 85.611 85.595" enable-background="new 0 0 100 100" xml:space="preserve" height="128.45383023705006" width="128.4778417013154" class="icon-icon-0" data-fill-palette-color="accent" id="icon-0"><path d="M93.568 50.134c0 23.641-19.171 42.811-42.819 42.811-23.615 0-42.792-19.17-42.792-42.811 0-23.632 19.177-42.784 42.792-42.784C74.397 7.35 93.568 26.502 93.568 50.134L93.568 50.134zM88.671 50.134c0-20.926-16.986-37.903-37.922-37.903S12.854 29.208 12.854 50.134c0 20.936 16.959 37.915 37.895 37.915S88.671 71.07 88.671 50.134L88.671 50.134zM29.045 47.14h7.457c0.154-3.183-0.768-6.33-2.628-8.932-0.443-0.615-1.28-0.742-1.91-0.308-0.119 0.068-0.205 0.17-0.29 0.308C29.813 40.81 28.894 43.958 29.045 47.14zM37.611 66.473l-0.035-1.553-0.717-0.701c-0.171-0.178-0.237-0.469-0.117-0.707l0.715-1.236c0.034-0.086 0.068-0.18 0.068-0.281l-0.188-9.957c0-0.092-0.025-0.178-0.052-0.256l-0.954-1.775V48.42h-7.116v1.586l-0.954 1.775c-0.026 0.078-0.051 0.164-0.051 0.256l-0.213 9.957c0 0.102 0.024 0.195 0.093 0.281l0.682 1.236c0.121 0.238 0.087 0.529-0.084 0.707l-0.752 0.701-0.034 1.553c0 0.316 0.273 0.58 0.597 0.58h8.55C37.338 67.053 37.611 66.805 37.611 66.473zM41.041 47.14h7.439c0.178-3.183-0.752-6.33-2.629-8.932-0.418-0.615-1.254-0.742-1.877-0.308-0.119 0.068-0.213 0.17-0.307 0.308C41.791 40.81 40.87 43.958 41.041 47.14zM49.614 66.473L49.59 64.92l-0.718-0.701c-0.214-0.178-0.239-0.469-0.119-0.707l0.683-1.236c0.06-0.086 0.084-0.18 0.084-0.281l-0.205-9.957c0-0.092 0-0.178-0.059-0.256l-0.93-1.775V48.42h-7.133v1.586l-0.921 1.775c-0.067 0.078-0.067 0.164-0.067 0.256L40 61.994c0 0.102 0.034 0.195 0.085 0.281l0.69 1.236c0.12 0.238 0.095 0.529-0.119 0.707l-0.715 0.701-0.027 1.553c0 0.316 0.266 0.58 0.563 0.58 0.034 0 8.539 0 8.539 0C49.351 67.053 49.614 66.805 49.614 66.473zM53.019 47.14h7.465c0.146-3.183-0.776-6.33-2.626-8.932-0.454-0.615-1.291-0.742-1.887-0.308-0.119 0.068-0.238 0.17-0.324 0.308C53.794 40.81 52.865 43.958 53.019 47.14zM61.618 66.473l-0.034-1.553-0.741-0.701c-0.181-0.178-0.213-0.469-0.096-0.707l0.692-1.236c0.06-0.086 0.094-0.18 0.094-0.281l-0.213-9.957c0-0.092-0.026-0.178-0.062-0.256l-0.954-1.775V48.42h-7.107v1.586l-0.955 1.775c-0.026 0.078-0.059 0.164-0.059 0.256l-0.181 9.957c0 0.102 0.025 0.195 0.06 0.281l0.718 1.236c0.118 0.238 0.06 0.529-0.12 0.707l-0.716 0.701-0.034 1.553c0 0.316 0.239 0.58 0.571 0.58h8.539C61.345 67.053 61.618 66.805 61.618 66.473zM65.022 47.14h7.465c0.153-3.183-0.778-6.33-2.628-8.932-0.442-0.615-1.279-0.742-1.877-0.308-0.12 0.068-0.239 0.17-0.334 0.308C65.799 40.81 64.876 43.958 65.022 47.14zM73.596 66.473l-0.034-1.553-0.716-0.701c-0.18-0.178-0.239-0.469-0.086-0.707l0.684-1.236c0.059-0.086 0.059-0.18 0.059-0.281l-0.18-9.957c0-0.092-0.034-0.178-0.059-0.256l-0.957-1.775V48.42h-7.105v1.586l-0.957 1.775c-0.032 0.078-0.059 0.164-0.059 0.256l-0.213 9.957c0 0.102 0.034 0.195 0.094 0.281l0.69 1.236c0.146 0.238 0.085 0.529-0.094 0.707l-0.717 0.701-0.024 1.553c-0.034 0.316 0.238 0.58 0.563 0.58h8.539C73.356 67.053 73.596 66.805 73.596 66.473z" fill="#000000" data-fill-palette-color="accent"></path></svg></g></svg></g></svg></g><defs></defs></svg><rect width="395.52" height="93.06151741653791" fill="none" stroke="none" visibility="hidden"></rect></g></svg></g></svg>